<svg xmlns="http://www.w3.org/2000/svg" width="608" height="1172.5" viewBox="0 0 608 1172.5">
<defs>
<style>text{font-family:Arial,Helvetica,sans-serif;fill:#111827}.label{font-size:13px}.small{font-size:11px}.header{font-size:14px;font-weight:600}</style>
<marker id="arrow" markerWidth="8" markerHeight="6" refX="8" refY="3" orient="auto"><polygon points="0 0,8 3,0 6" fill="#1D4ED8"/></marker>
<marker id="arrow-dark" markerWidth="8" markerHeight="6" refX="8" refY="3" orient="auto"><polygon points="0 0,8 3,0 6" fill="#334155"/></marker>
<marker id="composition" markerWidth="12" markerHeight="12" refX="0" refY="6" orient="auto" markerUnits="strokeWidth"><polygon points="0 6,6 0,12 6,6 12" fill="#111827" stroke="#111827"/></marker>
</defs>
<rect x="0" y="0" width="608" height="1172.5" fill="#FFFFFF"/>
<rect x="2" y="38" width="604" height="1130.5" fill="none" stroke="#333333" stroke-width="2"/>
<path d="M 2 1 H 416 L 432 38 H 2 Z" fill="#FFFFFF" stroke="#333333" stroke-width="2"/>
<text class="header" x="12" y="24">[intf.mb] Electric Bike Interfaces [ElectricBike]</text>
<rect x="2" y="38" width="604" height="1132.5" fill="none" stroke="#333333" stroke-width="0"/>
<g transform="translate(2,40)">
<rect id="RiderInterface" x="72" y="72" width="150" height="70" rx="4" fill="#F0F9FF" stroke="#0369A1" stroke-width="2"/>
<text class="label" text-anchor="middle" x="147" y="107">Rider Interface</text>
<rect id="ChargeInterface" x="72" y="255" width="150" height="70" rx="4" fill="#F0F9FF" stroke="#0369A1" stroke-width="2"/>
<text class="label" text-anchor="middle" x="147" y="290">Charge Interface</text>
<rect id="DriveInterface" x="72" y="438" width="150" height="70" rx="4" fill="#F0F9FF" stroke="#0369A1" stroke-width="2"/>
<text class="label" text-anchor="middle" x="147" y="473">Drive Interface</text>
<rect id="BrakeInterface" x="72" y="621" width="150" height="70" rx="4" fill="#F0F9FF" stroke="#0369A1" stroke-width="2"/>
<text class="label" text-anchor="middle" x="147" y="656">Brake Interface</text>
<rect id="PedalCadence" x="382" y="72" width="150" height="70" rx="4" fill="#F1F5F9" stroke="#475569" stroke-width="1.5"/>
<text class="label" text-anchor="middle" x="457" y="107">PedalCadence</text>
<rect id="WalkAssistCommand" x="382" y="985.5" width="150" height="73" rx="4" fill="#F1F5F9" stroke="#475569" stroke-width="1.5"/>
<text class="label" text-anchor="middle"><tspan x="457" y="1007">WalkAssist</tspan><tspan x="457" dy="15">&lt;= 6 km/h</tspan><tspan x="457" dy="15">(not throttle)</tspan></text>
<rect id="ChargeEnergy" x="382" y="255" width="150" height="70" rx="4" fill="#F1F5F9" stroke="#475569" stroke-width="1.5"/>
<text class="label" text-anchor="middle" x="457" y="290">ChargeEnergy</text>
<rect id="ElectricalEnergy" x="382" y="438" width="150" height="70" rx="4" fill="#F1F5F9" stroke="#475569" stroke-width="1.5"/>
<text class="label" text-anchor="middle" x="457" y="473">ElectricalEnergy</text>
<rect id="WheelTorque" x="382" y="621" width="150" height="70" rx="4" fill="#F1F5F9" stroke="#475569" stroke-width="1.5"/>
<text class="label" text-anchor="middle" x="457" y="656">WheelTorque</text>
<rect id="BrakeInhibit" x="382" y="804" width="150" height="70" rx="4" fill="#F1F5F9" stroke="#475569" stroke-width="1.5"/>
<text class="label" text-anchor="middle" x="457" y="839">BrakeInhibit</text>
<path d="M 222,107 L 382,107" fill="none" stroke="#334155" stroke-width="2" stroke-linejoin="round" stroke-linecap="round"/>
<path d="M 222,107 L 311.143,107 L 311.143,1022 L 382,1022" fill="none" stroke="#334155" stroke-width="2" stroke-linejoin="round" stroke-linecap="round"/>
<path d="M 222,290 L 304.143,290 A 7 7 0 0 0 318.143,290 L 382,290" fill="none" stroke="#334155" stroke-width="2" stroke-linejoin="round" stroke-linecap="round"/>
<path d="M 222,290 L 292.857,290 L 292.857,473 L 304.143,473 A 7 7 0 0 0 318.143,473 L 382,473" fill="none" stroke="#334155" stroke-width="2" stroke-linejoin="round" stroke-linecap="round"/>
<path d="M 222,473 L 304.143,473 A 7 7 0 0 0 318.143,473 L 329.429,473 L 329.429,656 L 382,656" fill="none" stroke="#334155" stroke-width="2" stroke-linejoin="round" stroke-linecap="round"/>
<path d="M 222,656 L 304.143,656 A 7 7 0 0 0 318.143,656 L 347.714,656 L 347.714,839 L 382,839" fill="none" stroke="#334155" stroke-width="2" stroke-linejoin="round" stroke-linecap="round"/>
<text class="small" text-anchor="middle" x="302" y="95">carries</text>
<text class="small" text-anchor="end" x="299.143" y="564.5">carries</text>
<text class="small" text-anchor="middle" x="278" y="278">carries</text>
<text class="small" text-anchor="end" x="280.857" y="381.5">carries</text>
<text class="small" x="341.429" y="564.5">carries</text>
<text class="small" x="359.714" y="747.5">carries</text>
</g>
</svg>
