<svg xmlns="http://www.w3.org/2000/svg" width="1561" height="580" viewBox="0 0 1561 580">
<defs>
<style>text{font-family:Arial,Helvetica,sans-serif;fill:#111827}.label{font-size:13px}.small{font-size:11px}.header{font-size:14px;font-weight:600}</style>
<marker id="arrow" markerWidth="8" markerHeight="6" refX="8" refY="3" orient="auto"><polygon points="0 0,8 3,0 6" fill="#1D4ED8"/></marker>
<marker id="arrow-dark" markerWidth="8" markerHeight="6" refX="8" refY="3" orient="auto"><polygon points="0 0,8 3,0 6" fill="#334155"/></marker>
<marker id="composition" markerWidth="12" markerHeight="12" refX="0" refY="6" orient="auto" markerUnits="strokeWidth"><polygon points="0 6,6 0,12 6,6 12" fill="#111827" stroke="#111827"/></marker>
</defs>
<rect x="0" y="0" width="1561" height="580" fill="#FFFFFF"/>
<rect x="2" y="38" width="1557" height="538" fill="none" stroke="#333333" stroke-width="2"/>
<path d="M 2 1 H 528 L 544 38 H 2 Z" fill="#FFFFFF" stroke="#333333" stroke-width="2"/>
<text class="header" x="12" y="24">[stv.mb] Ride Control State Machine [rideControl : RideControl]</text>
<rect x="2" y="38" width="1557" height="540" fill="none" stroke="#333333" stroke-width="0"/>
<g transform="translate(2,40)">
<rect id="boundary" x="95" y="75" width="1422" height="423" rx="12" fill="#FFFFFF" stroke="#334155" stroke-width="2"/>
<text class="label" x="105" y="97">rideControl</text>
<circle id="initial" cx="155" cy="227" r="10" fill="#1E293B" stroke="#1E293B" stroke-width="1"/>
<rect id="off" x="372" y="197" width="130" height="60" rx="16" fill="#EFF6FF" stroke="#1D4ED8" stroke-width="2"/>
<text class="label" text-anchor="middle" x="437" y="227">Off</text>
<rect id="standby" x="653" y="125" width="130" height="60" rx="16" fill="#EFF6FF" stroke="#1D4ED8" stroke-width="2"/>
<text class="label" text-anchor="middle" x="718" y="155">Standby</text>
<rect id="assist" x="935" y="197" width="130" height="60" rx="16" fill="#EFF6FF" stroke="#1D4ED8" stroke-width="2"/>
<text class="label" text-anchor="middle" x="1000" y="227">Assist</text>
<rect id="charging" x="653" y="268" width="130" height="60" rx="16" fill="#EFF6FF" stroke="#1D4ED8" stroke-width="2"/>
<text class="label" text-anchor="middle" x="718" y="298">Charging</text>
<rect id="fault" x="1217" y="197" width="130" height="60" rx="16" fill="#EFF6FF" stroke="#1D4ED8" stroke-width="2"/>
<text class="label" text-anchor="middle" x="1282" y="227">Fault</text>
<path d="M 165,227 L 372,227" fill="none" stroke="#1D4ED8" stroke-width="1.5" stroke-linejoin="round" stroke-linecap="round" marker-end="url(#arrow)"/>
<path d="M 502,216.998 L 544,217 Q 552,217 552,209 L 552,163 Q 552,155 560,155 L 653,155" fill="none" stroke="#1D4ED8" stroke-width="1.5" stroke-linejoin="round" stroke-linecap="round" marker-end="url(#arrow)"/>
<path d="M 783,155 L 851,155 Q 859,155 859,163 L 859,219 Q 859,227 867,227 L 935,227" fill="none" stroke="#1D4ED8" stroke-width="1.5" stroke-linejoin="round" stroke-linecap="round" marker-end="url(#arrow)"/>
<path d="M 502,237.002 L 595,237 Q 603,237 603,245 L 603,290 Q 603,298 611,298 L 653,298" fill="none" stroke="#1D4ED8" stroke-width="1.5" stroke-linejoin="round" stroke-linecap="round" marker-end="url(#arrow)"/>
<path d="M 1065,227 L 1217,227" fill="none" stroke="#1D4ED8" stroke-width="1.5" stroke-linejoin="round" stroke-linecap="round" marker-end="url(#arrow)"/>
<path d="M 1000,257 L 1000,348 Q 1000,356 992,356 L 633,356 Q 625,356 625,348 L 625,305 A 7 7 0 0 0 625,291 L 625,193 Q 625,185 633,185 L 718,185" fill="none" stroke="#1D4ED8" stroke-width="1.5" stroke-linejoin="round" stroke-linecap="round" marker-end="url(#arrow)"/>
<path d="M 718,328 L 718,349 A 7 7 0 0 1 718,363 L 718,376 Q 718,384 710,384 L 445,384 Q 437,384 437,376 L 437,257" fill="none" stroke="#1D4ED8" stroke-width="1.5" stroke-linejoin="round" stroke-linecap="round" marker-end="url(#arrow)"/>
<path d="M 718,125 L 718,77 Q 718,69 710,69 L 423,69 Q 415,69 415.021,77 L 415.329,197" fill="none" stroke="#1D4ED8" stroke-width="1.5" stroke-linejoin="round" stroke-linecap="round" marker-end="url(#arrow)"/>
<path d="M 1282,197 L 1282,105 Q 1282,97 1274,97 L 725,97 A 7 7 0 0 1 711,97 L 467,97 Q 459,97 458.974,105 L 458.671,197" fill="none" stroke="#1D4ED8" stroke-width="1.5" stroke-linejoin="round" stroke-linecap="round" marker-end="url(#arrow)"/>
<text class="small" text-anchor="middle" x="552" y="194">power button</text>
<text class="small" text-anchor="middle" x="859" y="199">cadence / throttle</text>
<text class="small" text-anchor="end" x="591" y="267.5">charger in</text>
<text class="small" text-anchor="middle" x="1141" y="235">overcurrent</text>
<text class="small" text-anchor="middle" x="625" y="227.2">no pedal / brake</text>
<text class="small" text-anchor="middle" x="577.5" y="392">full / unplug</text>
<text class="small" text-anchor="middle" x="566.5" y="77">power button</text>
<text class="small" text-anchor="middle" x="870.5" y="105">reset</text>
</g>
</svg>
