<svg xmlns="http://www.w3.org/2000/svg" width="1210" height="476" viewBox="0 0 1210 476">
<defs>
<style>text{font-family:Arial,Helvetica,sans-serif;fill:#111827}.label{font-size:13px}.small{font-size:11px}.header{font-size:14px;font-weight:600}</style>
<marker id="arrow" markerWidth="8" markerHeight="6" refX="8" refY="3" orient="auto"><polygon points="0 0,8 3,0 6" fill="#1D4ED8"/></marker>
<marker id="arrow-dark" markerWidth="8" markerHeight="6" refX="8" refY="3" orient="auto"><polygon points="0 0,8 3,0 6" fill="#334155"/></marker>
<marker id="composition" markerWidth="12" markerHeight="12" refX="0" refY="6" orient="auto" markerUnits="strokeWidth"><polygon points="0 6,6 0,12 6,6 12" fill="#111827" stroke="#111827"/></marker>
</defs>
<rect x="0" y="0" width="1210" height="476" fill="#FFFFFF"/>
<rect x="2" y="38" width="1206" height="434" fill="none" stroke="#333333" stroke-width="2"/>
<path d="M 2 1 H 360 L 376 38 H 2 Z" fill="#FFFFFF" stroke="#333333" stroke-width="2"/>
<text class="header" x="12" y="24">[def.mb] Blender Definition Tree [Blender]</text>
<rect x="2" y="38" width="1206" height="436" fill="none" stroke="#333333" stroke-width="0"/>
<g transform="translate(2,40)">
<rect id="blender" x="498" y="40" width="210" height="72" rx="10" fill="#E3F2FD" stroke="#1565C0" stroke-width="2"/>
<text class="label" text-anchor="middle" x="603" y="76">Blender</text>
<rect id="tamper" x="40" y="222" width="190" height="72" rx="10" fill="#F8FAFC" stroke="#475569" stroke-width="2"/>
<text class="label" text-anchor="middle" x="135" y="258">Tamper</text>
<rect id="lid" x="274" y="222" width="190" height="72" rx="10" fill="#F8FAFC" stroke="#475569" stroke-width="2"/>
<text class="label" text-anchor="middle" x="369" y="258">Lid</text>
<rect id="container" x="508" y="222" width="190" height="72" rx="10" fill="#F8FAFC" stroke="#475569" stroke-width="2"/>
<text class="label" text-anchor="middle" x="603" y="258">Container</text>
<rect id="blade-assembly" x="742" y="222" width="190" height="72" rx="10" fill="#F8FAFC" stroke="#475569" stroke-width="2"/>
<text class="label" text-anchor="middle" x="837" y="258">Blade Assembly</text>
<rect id="drive-coupling" x="976" y="222" width="190" height="72" rx="10" fill="#F8FAFC" stroke="#475569" stroke-width="2"/>
<text class="label" text-anchor="middle" x="1071" y="258">Drive Coupling</text>
<rect id="smoothness-sensor" x="157" y="322" width="190" height="72" rx="10" fill="#F8FAFC" stroke="#475569" stroke-width="2"/>
<text class="label" text-anchor="middle"><tspan x="252" y="350.5">Smoothness</tspan><tspan x="252" dy="15">Sensor</tspan></text>
<rect id="motor-base" x="391" y="322" width="190" height="72" rx="10" fill="#F8FAFC" stroke="#475569" stroke-width="2"/>
<text class="label" text-anchor="middle" x="486" y="358">Motor Base</text>
<rect id="motor" x="625" y="322" width="190" height="72" rx="10" fill="#F8FAFC" stroke="#475569" stroke-width="2"/>
<text class="label" text-anchor="middle" x="720" y="358">Motor</text>
<rect id="control-panel" x="859" y="322" width="190" height="72" rx="10" fill="#F8FAFC" stroke="#475569" stroke-width="2"/>
<text class="label" text-anchor="middle" x="954" y="358">Control Panel</text>
<path d="M 603,112 L 603,159 Q 603,167 595,167 L 143,167 Q 135,167 135,175 L 135,222" fill="none" stroke="#64748B" stroke-width="2" stroke-linejoin="round" stroke-linecap="round" marker-start="url(#composition)"/>
<path d="M 603,112 L 603,159 Q 603,167 595,167 L 377,167 Q 369,167 369,175 L 369,222" fill="none" stroke="#64748B" stroke-width="2" stroke-linejoin="round" stroke-linecap="round" marker-start="url(#composition)"/>
<path d="M 603,112 L 603,222" fill="none" stroke="#64748B" stroke-width="2" stroke-linejoin="round" stroke-linecap="round" marker-start="url(#composition)"/>
<path d="M 603,112 L 603,159 Q 603,167 611,167 L 829,167 Q 837,167 837,175 L 837,222" fill="none" stroke="#64748B" stroke-width="2" stroke-linejoin="round" stroke-linecap="round" marker-start="url(#composition)"/>
<path d="M 603,112 L 603,159 Q 603,167 611,167 L 1063,167 Q 1071,167 1071,175 L 1071,222" fill="none" stroke="#64748B" stroke-width="2" stroke-linejoin="round" stroke-linecap="round" marker-start="url(#composition)"/>
<path d="M 603,112 L 603,159 Q 603,167 595,167 L 260,167 Q 252,167 252,175 L 252,322" fill="none" stroke="#64748B" stroke-width="2" stroke-linejoin="round" stroke-linecap="round" marker-start="url(#composition)"/>
<path d="M 603,112 L 603,159 Q 603,167 595,167 L 494,167 Q 486,167 486,175 L 486,322" fill="none" stroke="#64748B" stroke-width="2" stroke-linejoin="round" stroke-linecap="round" marker-start="url(#composition)"/>
<path d="M 603,112 L 603,159 Q 603,167 611,167 L 712,167 Q 720,167 720,175 L 720,322" fill="none" stroke="#64748B" stroke-width="2" stroke-linejoin="round" stroke-linecap="round" marker-start="url(#composition)"/>
<path d="M 603,112 L 603,159 Q 603,167 611,167 L 946,167 Q 954,167 954,175 L 954,322" fill="none" stroke="#64748B" stroke-width="2" stroke-linejoin="round" stroke-linecap="round" marker-start="url(#composition)"/>
<text class="small" x="145" y="212.1">0..1</text>
<text class="small" x="379" y="212.1">1</text>
<text class="small" x="613" y="202.2">1</text>
<text class="small" x="847" y="212.1">1</text>
<text class="small" x="1081" y="212.1">1</text>
<text class="small" x="262" y="294.1">1</text>
<text class="small" x="496" y="294.1">1</text>
<text class="small" x="730" y="294.1">1</text>
<text class="small" x="964" y="294.1">1</text>
</g>
</svg>
