<svg xmlns="http://www.w3.org/2000/svg" width="570" height="700" viewBox="0 0 570 700">
<defs>
<style>text{font-family:Arial,Helvetica,sans-serif;fill:#111827}.label{font-size:13px}.small{font-size:11px}.header{font-size:14px;font-weight:600}</style>
<marker id="arrow" markerWidth="8" markerHeight="6" refX="8" refY="3" orient="auto"><polygon points="0 0,8 3,0 6" fill="#1D4ED8"/></marker>
<marker id="arrow-dark" markerWidth="8" markerHeight="6" refX="8" refY="3" orient="auto"><polygon points="0 0,8 3,0 6" fill="#334155"/></marker>
<marker id="composition" markerWidth="12" markerHeight="12" refX="0" refY="6" orient="auto" markerUnits="strokeWidth"><polygon points="0 6,6 0,12 6,6 12" fill="#111827" stroke="#111827"/></marker>
</defs>
<rect x="0" y="0" width="570" height="700" fill="#FFFFFF"/>
<rect x="2" y="38" width="566" height="658" fill="none" stroke="#333333" stroke-width="2"/>
<path d="M 2 1 H 304 L 320 38 H 2 Z" fill="#FFFFFF" stroke="#333333" stroke-width="2"/>
<text class="header" x="12" y="24">[uc.mb] Blender Use Cases [Blender]</text>
<rect x="2" y="38" width="566" height="660" fill="none" stroke="#333333" stroke-width="0"/>
<g transform="translate(2,40)">
<rect id="blenderBoundary" x="260" y="72" width="234" height="514" rx="0" fill="#FFFFFF" stroke="#333333" stroke-width="2"/>
<text class="label" x="270" y="94">Blender</text>
<circle id="user" cx="107" cy="299.2" r="11.2" fill="#FFFFFF" stroke="#334155" stroke-width="2"/>
<line x1="107" y1="310.4" x2="107" y2="339.8" stroke="#334155" stroke-width="2" stroke-linecap="round"/>
<line x1="80" y1="318.2" x2="134" y2="318.2" stroke="#334155" stroke-width="2" stroke-linecap="round"/>
<line x1="107" y1="339.8" x2="82" y2="370" stroke="#334155" stroke-width="2" stroke-linecap="round"/>
<line x1="107" y1="339.8" x2="132" y2="370" stroke="#334155" stroke-width="2" stroke-linecap="round"/>
<text class="small" text-anchor="middle" x="107" y="388">User</text>
<ellipse id="makeSmoothieUseCase" cx="377" cy="149" rx="75" ry="35" fill="#EFF6FF" stroke="#2563EB" stroke-width="2"/>
<text class="label" text-anchor="middle" x="377" y="149">Make Smoothie</text>
<ellipse id="stopBlendUseCase" cx="377" cy="329" rx="75" ry="35" fill="#EFF6FF" stroke="#2563EB" stroke-width="2"/>
<text class="label" text-anchor="middle" x="377" y="329">Stop Blend</text>
<ellipse id="cleanContainerUseCase" cx="377" cy="509" rx="75" ry="35" fill="#EFF6FF" stroke="#2563EB" stroke-width="2"/>
<text class="label" text-anchor="middle" x="377" y="509">Clean Container</text>
<path d="M 142,315.5 L 198,315.5 L 198,149 L 302,149" fill="none" stroke="#334155" stroke-width="2" stroke-linejoin="round" stroke-linecap="round"/>
<path d="M 142,329 L 302,329" fill="none" stroke="#334155" stroke-width="2" stroke-linejoin="round" stroke-linecap="round"/>
<path d="M 142,342.5 L 198,342.5 L 198,509 L 302,509" fill="none" stroke="#334155" stroke-width="2" stroke-linejoin="round" stroke-linecap="round"/>
<path d="M 377,294 L 377,184" fill="none" stroke="#334155" stroke-width="1.5" stroke-linejoin="round" stroke-linecap="round" stroke-dasharray="6 4" marker-end="url(#arrow-dark)"/>
<path d="M 377,474 L 281,474 L 281,184 L 377,184" fill="none" stroke="#334155" stroke-width="1.5" stroke-linejoin="round" stroke-linecap="round" stroke-dasharray="6 4" marker-end="url(#arrow-dark)"/>
<text class="small" text-anchor="middle" x="198" y="240.25">uses</text>
<text class="small" text-anchor="middle" x="222" y="337">uses</text>
<text class="small" text-anchor="middle" x="198" y="433.75">uses</text>
<text class="small" text-anchor="middle" x="377" y="247">extend</text>
<text class="small" text-anchor="middle" x="281" y="424">include</text>
</g>
</svg>
