<svg xmlns="http://www.w3.org/2000/svg" width="1273" height="828" viewBox="0 0 1273 828">
<defs>
<style>text{font-family:Arial,Helvetica,sans-serif;fill:#111827}.label{font-size:13px}.small{font-size:11px}.header{font-size:14px;font-weight:600}</style>
<marker id="arrow" markerWidth="8" markerHeight="6" refX="8" refY="3" orient="auto"><polygon points="0 0,8 3,0 6" fill="#1D4ED8"/></marker>
<marker id="arrow-dark" markerWidth="8" markerHeight="6" refX="8" refY="3" orient="auto"><polygon points="0 0,8 3,0 6" fill="#334155"/></marker>
<marker id="composition" markerWidth="12" markerHeight="12" refX="0" refY="6" orient="auto" markerUnits="strokeWidth"><polygon points="0 6,6 0,12 6,6 12" fill="#111827" stroke="#111827"/></marker>
</defs>
<rect x="0" y="0" width="1273" height="828" fill="#FFFFFF"/>
<rect x="2" y="38" width="1269" height="786" fill="none" stroke="#333333" stroke-width="2"/>
<path d="M 2 1 H 328 L 344 38 H 2 Z" fill="#FFFFFF" stroke="#333333" stroke-width="2"/>
<text class="header" x="12" y="24">[cst.mb] Blender Parametrics [Blender]</text>
<rect x="2" y="38" width="1269" height="788" fill="none" stroke="#333333" stroke-width="0"/>
<g transform="translate(2,40)">
<rect id="commandedSpeed" x="72" y="112" width="139" height="58" rx="4" fill="#FAFAFA" stroke="#525252" stroke-width="1.5"/>
<text class="label" text-anchor="middle"><tspan x="141.5" y="133.5">commandedSpeed</tspan><tspan x="141.5" dy="15">20k rpm no-load</tspan></text>
<rect id="motorTorque" x="72" y="280" width="130" height="58" rx="4" fill="#FAFAFA" stroke="#525252" stroke-width="1.5"/>
<text class="label" text-anchor="middle"><tspan x="137" y="301.5">motorTorque</tspan><tspan x="137" dy="15">jam margin</tspan></text>
<rect id="blendDuration" x="72" y="448" width="146" height="58" rx="4" fill="#FAFAFA" stroke="#525252" stroke-width="1.5"/>
<text class="label" text-anchor="middle"><tspan x="145" y="469.5">blendDuration</tspan><tspan x="145" dy="15">&lt;= 120 s program</tspan></text>
<rect id="interlockLatency" x="72" y="616" width="146" height="58" rx="4" fill="#FAFAFA" stroke="#525252" stroke-width="1.5"/>
<text class="label" text-anchor="middle"><tspan x="145" y="637.5">interlockLatency</tspan><tspan x="145" dy="15">&lt;= 100 ms</tspan></text>
<rect id="torqueSpeedLoadEstimate" x="378" y="72" width="180" height="78" rx="4" fill="#F5F3FF" stroke="#6D28D9" stroke-width="2"/>
<text class="label" text-anchor="middle"><tspan x="468" y="103.5">Torque-Speed-</tspan><tspan x="468" dy="15">Load</tspan></text>
<rect id="motorPowerLimit" x="378" y="260" width="180" height="78" rx="4" fill="#F5F3FF" stroke="#6D28D9" stroke-width="2"/>
<text class="label" text-anchor="middle"><tspan x="468" y="291.5">Motor Power</tspan><tspan x="468" dy="15">Limit</tspan></text>
<rect id="blendTimingEstimate" x="378" y="448" width="180" height="78" rx="4" fill="#F5F3FF" stroke="#6D28D9" stroke-width="2"/>
<text class="label" text-anchor="middle"><tspan x="468" y="479.5">Blend Timing</tspan><tspan x="468" dy="15">Estimate</tspan></text>
<rect id="interlockStopTiming" x="378" y="636" width="180" height="78" rx="4" fill="#F5F3FF" stroke="#6D28D9" stroke-width="2"/>
<text class="label" text-anchor="middle"><tspan x="468" y="667.5">Interlock Stop</tspan><tspan x="468" dy="15">Timing</tspan></text>
<rect id="smoothnessThresholdEstimate" x="718" y="260" width="180" height="78" rx="4" fill="#F5F3FF" stroke="#6D28D9" stroke-width="2"/>
<text class="label" text-anchor="middle"><tspan x="808" y="291.5">Smoothness</tspan><tspan x="808" dy="15">Threshold</tspan></text>
<rect id="noisePowerTradeoff" x="718" y="448" width="180" height="78" rx="4" fill="#F5F3FF" stroke="#6D28D9" stroke-width="2"/>
<text class="label" text-anchor="middle"><tspan x="808" y="479.5">Noise-Power</tspan><tspan x="808" dy="15">Tradeoff &lt;= 85 dBA</tspan></text>
<rect id="smoothnessIndex" x="1058" y="280" width="139" height="58" rx="4" fill="#FAFAFA" stroke="#525252" stroke-width="1.5"/>
<text class="label" text-anchor="middle"><tspan x="1127.5" y="301.5">smoothnessIndex</tspan><tspan x="1127.5" dy="15">below threshold</tspan></text>
<rect id="noiseLevel" x="1058" y="448" width="130" height="58" rx="4" fill="#FAFAFA" stroke="#525252" stroke-width="1.5"/>
<text class="label" text-anchor="middle"><tspan x="1123" y="469.5">noiseLevel</tspan><tspan x="1123" dy="15">1 m distance</tspan></text>
<path d="M 211,141 L 378,111" fill="none" stroke="#334155" stroke-width="2" stroke-linejoin="round" stroke-linecap="round"/>
<path d="M 202,309 L 378,111" fill="none" stroke="#334155" stroke-width="2" stroke-linejoin="round" stroke-linecap="round"/>
<path d="M 218,477 L 378,487" fill="none" stroke="#334155" stroke-width="2" stroke-linejoin="round" stroke-linecap="round"/>
<path d="M 218,645 L 378,675" fill="none" stroke="#334155" stroke-width="2" stroke-linejoin="round" stroke-linecap="round"/>
<path d="M 468,150 L 468,260" fill="none" stroke="#334155" stroke-width="1.6" stroke-linejoin="round" stroke-linecap="round" marker-end="url(#arrow-dark)"/>
<path d="M 558,487 L 614,487 L 614,299 L 718,299" fill="none" stroke="#334155" stroke-width="1.6" stroke-linejoin="round" stroke-linecap="round" marker-end="url(#arrow-dark)"/>
<path d="M 898,299 L 954,299 L 954,309 L 1058,309" fill="none" stroke="#334155" stroke-width="1.6" stroke-linejoin="round" stroke-linecap="round" marker-end="url(#arrow-dark)"/>
<path d="M 558,299 L 614,299 L 614,487 L 718,487" fill="none" stroke="#334155" stroke-width="1.6" stroke-linejoin="round" stroke-linecap="round" marker-end="url(#arrow-dark)"/>
<path d="M 898,487 L 954,487 L 954,477 L 1058,477" fill="none" stroke="#334155" stroke-width="1.6" stroke-linejoin="round" stroke-linecap="round" marker-end="url(#arrow-dark)"/>
<text class="small" text-anchor="middle" x="294.5" y="134">bind</text>
<text class="small" text-anchor="middle" x="290" y="218">bind</text>
<text class="small" text-anchor="middle" x="298" y="490">bind</text>
<text class="small" text-anchor="middle" x="298" y="668">bind</text>
<text class="small" text-anchor="middle" x="468" y="213">limit</text>
<text class="small" x="624" y="393">estimate</text>
<text class="small" text-anchor="middle" x="1006" y="317">result</text>
<text class="small" text-anchor="end" x="604" y="393">bounds</text>
<text class="small" text-anchor="middle" x="1006" y="485">result</text>
</g>
</svg>
