<svg xmlns="http://www.w3.org/2000/svg" width="544" height="480" viewBox="0 0 544 480">
<defs>
<style>text{font-family:Arial,sans-serif;fill:#1E293B}.lbl{font-size:11px;text-anchor:middle}.edge-lbl{font-size:9px;fill:#64748B;text-anchor:middle}</style>
</defs>
<rect width="544" height="480" fill="#FFFFFF"/>
<line x1="80.0" y1="90.0" x2="80.0" y2="230.0" stroke="#64748B" stroke-width="1.5"/>
<text class="edge-lbl" x="70.0" y="160.0">tamper fit</text>
<line x1="80.0" y1="250.0" x2="80.0" y2="390.0" stroke="#64748B" stroke-width="1.5"/>
<text class="edge-lbl" x="70.0" y="320.0">lid seat</text>
<line x1="90.0" y1="400.0" x2="262.0" y2="400.0" stroke="#64748B" stroke-width="1.5"/>
<text class="edge-lbl" x="176.0" y="410.0">contains</text>
<line x1="90.0" y1="400.0" x2="454.0" y2="400.0" stroke="#64748B" stroke-width="1.5"/>
<text class="edge-lbl" x="272.0" y="410.0">container seat</text>
<line x1="464.0" y1="390.0" x2="464.0" y2="250.0" stroke="#64748B" stroke-width="1.5"/>
<text class="edge-lbl" x="474.0" y="320.0">motor mount</text>
<line x1="464.0" y1="390.0" x2="464.0" y2="90.0" stroke="#64748B" stroke-width="1.5"/>
<text class="edge-lbl" x="474.0" y="240.0">panel mount</text>
<line x1="456.3" y1="393.6" x2="279.7" y2="246.4" stroke="#64748B" stroke-width="1.5"/>
<text class="edge-lbl" x="374.4" y="312.3">coupling support</text>
<line x1="272.0" y1="390.0" x2="272.0" y2="250.0" stroke="#64748B" stroke-width="1.5"/>
<text class="edge-lbl" x="282.0" y="320.0">blade drive</text>
<line x1="282.0" y1="240.0" x2="454.0" y2="240.0" stroke="#64748B" stroke-width="1.5"/>
<text class="edge-lbl" x="368.0" y="250.0">motor drive</text>
<line x1="272.0" y1="230.0" x2="272.0" y2="90.0" stroke="#64748B" stroke-width="1.5"/>
<text class="edge-lbl" x="282.0" y="160.0">vibration/load</text>
<line x1="282.0" y1="80.0" x2="454.0" y2="80.0" stroke="#64748B" stroke-width="1.5"/>
<text class="edge-lbl" x="368.0" y="90.0">complete</text>
<line x1="464.0" y1="90.0" x2="464.0" y2="230.0" stroke="#64748B" stroke-width="1.5"/>
<text class="edge-lbl" x="454.0" y="160.0">command</text>
<circle cx="80.0" cy="80.0" r="10" fill="#1E40AF" stroke="#1E293B" stroke-width="1.5"/>
<text class="lbl" x="80.0" y="103.0">Tamper</text>
<circle cx="80.0" cy="240.0" r="10" fill="#1E40AF" stroke="#1E293B" stroke-width="1.5"/>
<text class="lbl" x="80.0" y="263.0">Lid</text>
<circle cx="80.0" cy="400.0" r="10" fill="#1E40AF" stroke="#1E293B" stroke-width="1.5"/>
<text class="lbl" x="80.0" y="423.0">Container</text>
<circle cx="272.0" cy="400.0" r="10" fill="#1E40AF" stroke="#1E293B" stroke-width="1.5"/>
<text class="lbl" x="272.0" y="423.0">Blade Assembly</text>
<circle cx="272.0" cy="240.0" r="10" fill="#1E40AF" stroke="#1E293B" stroke-width="1.5"/>
<text class="lbl" x="272.0" y="263.0">Drive Coupling</text>
<circle cx="272.0" cy="80.0" r="10" fill="#1E40AF" stroke="#1E293B" stroke-width="1.5"/>
<text class="lbl" x="272.0" y="103.0">Smoothness</text>
<text class="lbl" x="272.0" y="117.0">Sensor</text>
<circle cx="464.0" cy="400.0" r="10" fill="#1E40AF" stroke="#1E293B" stroke-width="1.5"/>
<text class="lbl" x="464.0" y="423.0">Motor Base</text>
<circle cx="464.0" cy="240.0" r="10" fill="#1E40AF" stroke="#1E293B" stroke-width="1.5"/>
<text class="lbl" x="464.0" y="263.0">Motor</text>
<circle cx="464.0" cy="80.0" r="10" fill="#1E40AF" stroke="#1E293B" stroke-width="1.5"/>
<text class="lbl" x="464.0" y="103.0">Control Panel</text>
</svg>
