<svg xmlns="http://www.w3.org/2000/svg" width="1541" height="466" viewBox="0 0 1541 466">
<defs>
<style>text{font-family:Arial,Helvetica,sans-serif;fill:#111827}.label{font-size:13px}.small{font-size:11px}.header{font-size:14px;font-weight:600}</style>
<marker id="arrow" markerWidth="8" markerHeight="6" refX="8" refY="3" orient="auto"><polygon points="0 0,8 3,0 6" fill="#1D4ED8"/></marker>
<marker id="arrow-dark" markerWidth="8" markerHeight="6" refX="8" refY="3" orient="auto"><polygon points="0 0,8 3,0 6" fill="#334155"/></marker>
<marker id="composition" markerWidth="12" markerHeight="12" refX="0" refY="6" orient="auto" markerUnits="strokeWidth"><polygon points="0 6,6 0,12 6,6 12" fill="#111827" stroke="#111827"/></marker>
</defs>
<rect x="0" y="0" width="1541" height="466" fill="#FFFFFF"/>
<rect x="2" y="38" width="1537" height="424" fill="none" stroke="#333333" stroke-width="2"/>
<path d="M 2 1 H 480 L 496 38 H 2 Z" fill="#FFFFFF" stroke="#333333" stroke-width="2"/>
<text class="header" x="12" y="24">[flow.mb] Blender Item, Power, and Signal Flows [Blender]</text>
<rect x="2" y="38" width="1537" height="426" fill="none" stroke="#333333" stroke-width="0"/>
<g transform="translate(2,40)">
<circle id="user" cx="107" cy="87.2" r="11.2" fill="#FFFFFF" stroke="#334155" stroke-width="2"/>
<line x1="107" y1="98.4" x2="107" y2="127.8" stroke="#334155" stroke-width="2" stroke-linecap="round"/>
<line x1="80" y1="106.2" x2="134" y2="106.2" stroke="#334155" stroke-width="2" stroke-linecap="round"/>
<line x1="107" y1="127.8" x2="82" y2="158" stroke="#334155" stroke-width="2" stroke-linecap="round"/>
<line x1="107" y1="127.8" x2="132" y2="158" stroke="#334155" stroke-width="2" stroke-linecap="round"/>
<text class="small" text-anchor="middle" x="107" y="176">User</text>
<rect id="mainsSupply" x="72" y="282" width="150" height="70" rx="4" fill="#F7F9FC" stroke="#334155" stroke-width="2"/>
<text class="label" text-anchor="middle" x="147" y="317">Mains Supply</text>
<rect id="container" x="382" y="82" width="150" height="70" rx="4" fill="#F7F9FC" stroke="#334155" stroke-width="2"/>
<text class="label" text-anchor="middle" x="457" y="117">Container</text>
<rect id="controlPanel" x="382" y="282" width="150" height="70" rx="4" fill="#F7F9FC" stroke="#334155" stroke-width="2"/>
<text class="label" text-anchor="middle" x="457" y="317">Control Panel</text>
<rect id="motor" x="692" y="82" width="150" height="70" rx="4" fill="#F7F9FC" stroke="#334155" stroke-width="2"/>
<text class="label" text-anchor="middle" x="767" y="117">Motor</text>
<rect id="driveCoupling" x="1002" y="82" width="150" height="70" rx="4" fill="#F7F9FC" stroke="#334155" stroke-width="2"/>
<text class="label" text-anchor="middle" x="1077" y="117">Drive Coupling</text>
<rect id="bladeAssembly" x="1312" y="82" width="150" height="70" rx="4" fill="#F7F9FC" stroke="#334155" stroke-width="2"/>
<text class="label" text-anchor="middle" x="1387" y="117">Blade Assembly</text>
<rect id="smoothnessSensor" x="1312" y="282" width="153" height="70" rx="4" fill="#F7F9FC" stroke="#334155" stroke-width="2"/>
<text class="label" text-anchor="middle" x="1388.5" y="317">Smoothness Sensor</text>
<path d="M 142,117 L 382,117" fill="none" stroke="#BE185D" stroke-width="1.8" stroke-linejoin="round" stroke-linecap="round" marker-end="url(#arrow-dark)"/>
<path d="M 142,117 L 302,117 L 302,317 L 382,317" fill="none" stroke="#BE185D" stroke-width="1.8" stroke-linejoin="round" stroke-linecap="round" marker-end="url(#arrow-dark)"/>
<path d="M 222,317 L 382,317" fill="none" stroke="#BE185D" stroke-width="1.8" stroke-linejoin="round" stroke-linecap="round" marker-end="url(#arrow-dark)"/>
<path d="M 532,317 L 612,317 L 612,117 L 692,117" fill="none" stroke="#BE185D" stroke-width="1.8" stroke-linejoin="round" stroke-linecap="round" marker-end="url(#arrow-dark)"/>
<path d="M 842,117 L 1002,117" fill="none" stroke="#BE185D" stroke-width="1.8" stroke-linejoin="round" stroke-linecap="round" marker-end="url(#arrow-dark)"/>
<path d="M 1152,117 L 1312,117" fill="none" stroke="#BE185D" stroke-width="1.8" stroke-linejoin="round" stroke-linecap="round" marker-end="url(#arrow-dark)"/>
<path d="M 1152,117 L 1253.33,117 L 1253.33,317 L 1312,317" fill="none" stroke="#BE185D" stroke-width="1.8" stroke-linejoin="round" stroke-linecap="round" marker-end="url(#arrow-dark)"/>
<text class="small" text-anchor="middle" x="262" y="105">ingredients</text>
<text class="small" x="314" y="217">command</text>
<text class="small" text-anchor="middle" x="302" y="340">power</text>
<text class="small" x="624" y="217">drive command</text>
<text class="small" text-anchor="middle" x="922" y="105">torque</text>
<text class="small" text-anchor="middle" x="1232" y="105">rotation</text>
<text class="small" x="1265.33" y="217">feedback</text>
</g>
</svg>
