<svg xmlns="http://www.w3.org/2000/svg" width="941" height="696" viewBox="0 0 941 696">
<defs>
<style>text{font-family:Arial,Helvetica,sans-serif;fill:#111827}.label{font-size:13px}.small{font-size:11px}.header{font-size:14px;font-weight:600}</style>
<marker id="arrow" markerWidth="8" markerHeight="6" refX="8" refY="3" orient="auto"><polygon points="0 0,8 3,0 6" fill="#1D4ED8"/></marker>
<marker id="arrow-dark" markerWidth="8" markerHeight="6" refX="8" refY="3" orient="auto"><polygon points="0 0,8 3,0 6" fill="#334155"/></marker>
<marker id="composition" markerWidth="12" markerHeight="12" refX="0" refY="6" orient="auto" markerUnits="strokeWidth"><polygon points="0 6,6 0,12 6,6 12" fill="#111827" stroke="#111827"/></marker>
</defs>
<rect x="0" y="0" width="941" height="696" fill="#FFFFFF"/>
<rect x="2" y="38" width="937" height="654" fill="none" stroke="#333333" stroke-width="2"/>
<path d="M 2 1 H 344 L 360 38 H 2 Z" fill="#FFFFFF" stroke="#333333" stroke-width="2"/>
<text class="header" x="12" y="24">[alloc.mb] Blender Allocations [Blender]</text>
<rect x="2" y="38" width="937" height="656" fill="none" stroke="#333333" stroke-width="0"/>
<g transform="translate(2,40)">
<rect id="lidInterlockRequirement" x="72" y="72" width="170" height="82" rx="4" fill="#FFF7ED" stroke="#C2410C" stroke-width="2"/>
<text class="label" text-anchor="middle" x="157" y="113">Lid Interlock Req</text>
<rect id="motorControlRequirement" x="72" y="264" width="170" height="82" rx="4" fill="#FFF7ED" stroke="#C2410C" stroke-width="2"/>
<text class="label" text-anchor="middle" x="157" y="305">Motor Control Req</text>
<rect id="smoothnessDetectionRequirement" x="72" y="456" width="170" height="82" rx="4" fill="#FFF7ED" stroke="#C2410C" stroke-width="2"/>
<text class="label" text-anchor="middle" x="157" y="497">Smoothness Req</text>
<rect id="controlPanel" x="402" y="90" width="150" height="70" rx="4" fill="#F7F9FC" stroke="#334155" stroke-width="2"/>
<text class="label" text-anchor="middle" x="477" y="125">Control Panel</text>
<rect id="motor" x="402" y="270" width="150" height="70" rx="4" fill="#F7F9FC" stroke="#334155" stroke-width="2"/>
<text class="label" text-anchor="middle" x="477" y="305">Motor</text>
<rect id="smoothnessSensor" x="402" y="450" width="153" height="70" rx="4" fill="#F7F9FC" stroke="#334155" stroke-width="2"/>
<text class="label" text-anchor="middle" x="478.5" y="485">Smoothness Sensor</text>
<rect id="spinBladeAssembly" x="715" y="270" width="150" height="70" rx="18" fill="#ECFDF5" stroke="#047857" stroke-width="2"/>
<text class="label" text-anchor="middle" x="790" y="305">Spin Blades</text>
<path d="M 242,113 L 298,113 L 298,125 L 402,125" fill="none" stroke="#64748B" stroke-width="1.6" stroke-linejoin="round" stroke-linecap="round" stroke-dasharray="6 4" marker-end="url(#arrow-dark)"/>
<path d="M 242,305 L 402,305" fill="none" stroke="#64748B" stroke-width="1.6" stroke-linejoin="round" stroke-linecap="round" stroke-dasharray="6 4" marker-end="url(#arrow-dark)"/>
<path d="M 242,497 L 298,497 L 298,485 L 402,485" fill="none" stroke="#64748B" stroke-width="1.6" stroke-linejoin="round" stroke-linecap="round" stroke-dasharray="6 4" marker-end="url(#arrow-dark)"/>
<path d="M 242,305 L 242,582 L 715,582 L 715,305" fill="none" stroke="#64748B" stroke-width="1.6" stroke-linejoin="round" stroke-linecap="round" stroke-dasharray="6 4" marker-end="url(#arrow-dark)"/>
<text class="small" text-anchor="middle" x="350" y="133">allocate</text>
<text class="small" text-anchor="middle" x="322" y="313">allocate</text>
<text class="small" text-anchor="middle" x="350" y="493">allocate</text>
<text class="small" text-anchor="middle" x="478.5" y="590">allocate</text>
</g>
</svg>
