<svg xmlns="http://www.w3.org/2000/svg" width="705" height="1612" viewBox="0 0 705 1612">
<defs>
<style>text{font-family:Arial,Helvetica,sans-serif;fill:#111827}.label{font-size:13px}.small{font-size:11px}.header{font-size:14px;font-weight:600}</style>
<marker id="arrow" markerWidth="8" markerHeight="6" refX="8" refY="3" orient="auto"><polygon points="0 0,8 3,0 6" fill="#1D4ED8"/></marker>
<marker id="arrow-dark" markerWidth="8" markerHeight="6" refX="8" refY="3" orient="auto"><polygon points="0 0,8 3,0 6" fill="#334155"/></marker>
<marker id="composition" markerWidth="12" markerHeight="12" refX="0" refY="6" orient="auto" markerUnits="strokeWidth"><polygon points="0 6,6 0,12 6,6 12" fill="#111827" stroke="#111827"/></marker>
</defs>
<rect x="0" y="0" width="705" height="1612" fill="#FFFFFF"/>
<rect x="2" y="38" width="701" height="1570" fill="none" stroke="#333333" stroke-width="2"/>
<path d="M 2 1 H 400 L 416 38 H 2 Z" fill="#FFFFFF" stroke="#333333" stroke-width="2"/>
<text class="header" x="12" y="24">[vcase.mb] Blender Verification Cases [Blender]</text>
<rect x="2" y="38" width="701" height="1572" fill="none" stroke="#333333" stroke-width="0"/>
<g transform="translate(2,40)">
<rect id="verifyLidInterlock" x="72" y="78" width="174" height="70" rx="4" fill="#F0FDFA" stroke="#0F766E" stroke-width="2"/>
<text class="label" text-anchor="middle" x="159" y="113">Verify Lid Interlock</text>
<rect id="verifySmoothnessDetection" x="72" y="270" width="153" height="70" rx="4" fill="#F0FDFA" stroke="#0F766E" stroke-width="2"/>
<text class="label" text-anchor="middle" x="148.5" y="305">Verify Smoothness</text>
<rect id="verifyStopCommand" x="72" y="462" width="150" height="70" rx="4" fill="#F0FDFA" stroke="#0F766E" stroke-width="2"/>
<text class="label" text-anchor="middle" x="147" y="497">Verify Stop</text>
<rect id="verifyOvercurrentProtection" x="72" y="654" width="160" height="70" rx="4" fill="#F0FDFA" stroke="#0F766E" stroke-width="2"/>
<text class="label" text-anchor="middle" x="152" y="689">Verify Overcurrent</text>
<rect id="verifyContainerSeat" x="72" y="846" width="181" height="70" rx="4" fill="#F0FDFA" stroke="#0F766E" stroke-width="2"/>
<text class="label" text-anchor="middle" x="162.5" y="881">Verify Container Seat</text>
<rect id="lidInterlockRequirement" x="413" y="72" width="170" height="82" rx="4" fill="#FFF7ED" stroke="#C2410C" stroke-width="2"/>
<text class="label" text-anchor="middle" x="498" y="113">Lid Interlock Req</text>
<rect id="interlockLatencyRequirement" x="413" y="264" width="181" height="82" rx="4" fill="#FFF7ED" stroke="#C2410C" stroke-width="2"/>
<text class="label" text-anchor="middle" x="503.5" y="305">Interlock Latency Req</text>
<rect id="smoothnessDetectionRequirement" x="413" y="456" width="170" height="82" rx="4" fill="#FFF7ED" stroke="#C2410C" stroke-width="2"/>
<text class="label" text-anchor="middle" x="498" y="497">Smoothness Req</text>
<rect id="smoothnessThresholdRequirement" x="413" y="648" width="202" height="82" rx="4" fill="#FFF7ED" stroke="#C2410C" stroke-width="2"/>
<text class="label" text-anchor="middle" x="514" y="689">Smoothness Threshold Req</text>
<rect id="userControlsRequirement" x="413" y="840" width="170" height="82" rx="4" fill="#FFF7ED" stroke="#C2410C" stroke-width="2"/>
<text class="label" text-anchor="middle" x="498" y="881">User Controls Req</text>
<rect id="motorControlRequirement" x="413" y="1032" width="170" height="82" rx="4" fill="#FFF7ED" stroke="#C2410C" stroke-width="2"/>
<text class="label" text-anchor="middle" x="498" y="1073">Motor Control Req</text>
<rect id="overcurrentProtectionRequirement" x="413" y="1224" width="216" height="82" rx="4" fill="#FFF7ED" stroke="#C2410C" stroke-width="2"/>
<text class="label" text-anchor="middle" x="521" y="1265">Overcurrent Protection Req</text>
<rect id="containerSeatRequirement" x="413" y="1416" width="170" height="82" rx="4" fill="#FFF7ED" stroke="#C2410C" stroke-width="2"/>
<text class="label" text-anchor="middle" x="498" y="1457">Container Seat Req</text>
<path d="M 246,113 L 413,113" fill="none" stroke="#334155" stroke-width="2" stroke-linejoin="round" stroke-linecap="round"/>
<path d="M 246,113 L 297.444,113 L 297.444,305 L 413,305" fill="none" stroke="#334155" stroke-width="2" stroke-linejoin="round" stroke-linecap="round"/>
<path d="M 225,305 L 311.667,305 L 311.667,497 L 413,497" fill="none" stroke="#334155" stroke-width="2" stroke-linejoin="round" stroke-linecap="round"/>
<path d="M 225,305 L 325.889,305 L 325.889,490 A 7 7 0 0 1 325.889,504 L 325.889,689 L 413,689" fill="none" stroke="#334155" stroke-width="2" stroke-linejoin="round" stroke-linecap="round"/>
<path d="M 222,497 L 318.889,497 A 7 7 0 0 0 332.889,497 L 340.111,497 L 340.111,682 A 7 7 0 0 1 340.111,696 L 340.111,881 L 413,881" fill="none" stroke="#334155" stroke-width="2" stroke-linejoin="round" stroke-linecap="round"/>
<path d="M 222,497 L 318.889,497 A 7 7 0 0 0 332.889,497 L 354.333,497 L 354.333,682 A 7 7 0 0 1 354.333,696 L 354.333,874 A 7 7 0 0 1 354.333,888 L 354.333,1073 L 413,1073" fill="none" stroke="#334155" stroke-width="2" stroke-linejoin="round" stroke-linecap="round"/>
<path d="M 232,689 L 333.111,689 A 7 7 0 0 0 347.111,689 L 347.333,689 A 7 7 0 0 0 361.333,689 L 368.556,689 L 368.556,874 A 7 7 0 0 1 368.556,888 L 368.556,1066 A 7 7 0 0 1 368.556,1080 L 368.556,1265 L 413,1265" fill="none" stroke="#334155" stroke-width="2" stroke-linejoin="round" stroke-linecap="round"/>
<path d="M 253,881 L 347.333,881 A 7 7 0 0 0 361.333,881 L 361.556,881 A 7 7 0 0 0 375.556,881 L 382.778,881 L 382.778,1066 A 7 7 0 0 1 382.778,1080 L 382.778,1258 A 7 7 0 0 1 382.778,1272 L 382.778,1457 L 413,1457" fill="none" stroke="#334155" stroke-width="2" stroke-linejoin="round" stroke-linecap="round"/>
<text class="small" text-anchor="middle" x="329.5" y="101">verifies</text>
<text class="small" x="309.444" y="209">verifies</text>
<text class="small" text-anchor="end" x="299.667" y="401">verifies</text>
<text class="small" x="337.889" y="439.4">verifies</text>
<text class="small" text-anchor="end" x="328.111" y="746.6">verifies</text>
<text class="small" x="366.333" y="612.2">verifies</text>
<text class="small" x="380.556" y="804.2">verifies</text>
<text class="small" x="394.778" y="1169">verifies</text>
</g>
</svg>
