<svg xmlns="http://www.w3.org/2000/svg" width="1004" height="662" viewBox="0 0 1004 662">
<defs>
<style>text{font-family:Arial,Helvetica,sans-serif;fill:#111827}.label{font-size:13px}.small{font-size:11px}.header{font-size:14px;font-weight:600}</style>
</defs>
<rect x="0" y="0" width="1004" height="662" fill="#FFFFFF"/>
<rect x="2" y="38" width="1000" height="620" fill="none" stroke="#333333" stroke-width="2"/>
<path d="M 2 1 H 528 L 544 38 H 2 Z" fill="#FFFFFF" stroke="#333333" stroke-width="2"/>
<text class="header" x="12" y="24">[icn.mb] Toaster Electrical Interconnection [toaster : Toaster]</text>
<rect x="2" y="38" width="1000" height="622" fill="none" stroke="#333333" stroke-width="0"/>
<g transform="translate(2,40)">
<rect id="toaster-boundary" x="40" y="50" width="920" height="500" rx="12" fill="#FFFFFF" stroke="#333333" stroke-width="2"/>
<text class="label" x="50" y="72">toaster</text>
<rect id="button-input-port" x="174" y="44" width="12" height="12" fill="#FFFFFF" stroke="#334155" stroke-width="1"/>
<rect id="mains-port" x="469" y="544" width="12" height="12" fill="#FFFFFF" stroke="#334155" stroke-width="1"/>
<rect id="lever" x="100" y="240" width="150" height="90" rx="10" fill="#E8F5E9" stroke="#2E7D32" stroke-width="2"/>
<text class="label" text-anchor="middle" x="175" y="285">Lever</text>
<rect id="power-control-subsystem" x="360" y="240" width="230" height="90" rx="10" fill="#E3F2FD" stroke="#1565C0" stroke-width="2"/>
<text class="label" text-anchor="middle"><tspan x="475" y="277.5">Power and Control</tspan><tspan x="475" dy="15">Subsystem</tspan></text>
<rect id="buttons" x="100" y="130" width="160" height="70" rx="10" fill="#E8F5E9" stroke="#2E7D32" stroke-width="2"/>
<text class="label" text-anchor="middle" x="180" y="165">Buttons</text>
<rect id="heater" x="700" y="240" width="190" height="90" rx="10" fill="#FFF3E0" stroke="#EF6C00" stroke-width="2"/>
<text class="label" text-anchor="middle" x="795" y="285">Heating Element</text>
<rect id="power-cord" x="415" y="400" width="120" height="70" rx="10" fill="#F3E5F5" stroke="#6A1B9A" stroke-width="2"/>
<text class="label" text-anchor="middle" x="475" y="435">Power Cord</text>
<rect id="lever-out" x="244" y="279" width="12" height="12" fill="#FFFFFF" stroke="#334155" stroke-width="1"/>
<rect id="control-in" x="354" y="279" width="12" height="12" fill="#FFFFFF" stroke="#334155" stroke-width="1"/>
<rect id="button-user-in" x="174" y="124" width="12" height="12" fill="#FFFFFF" stroke="#334155" stroke-width="1"/>
<rect id="button-control-out" x="174" y="194" width="12" height="12" fill="#FFFFFF" stroke="#334155" stroke-width="1"/>
<rect id="button-in" x="453" y="234" width="12" height="12" fill="#FFFFFF" stroke="#334155" stroke-width="1"/>
<rect id="subsystem-power" x="469" y="324" width="12" height="12" fill="#FFFFFF" stroke="#334155" stroke-width="1"/>
<rect id="cord-in" x="469" y="464" width="12" height="12" fill="#FFFFFF" stroke="#334155" stroke-width="1"/>
<rect id="cord-out" x="469" y="394" width="12" height="12" fill="#FFFFFF" stroke="#334155" stroke-width="1"/>
<rect id="control-out" x="584" y="279" width="12" height="12" fill="#FFFFFF" stroke="#334155" stroke-width="1"/>
<rect id="heater-in" x="694" y="279" width="12" height="12" fill="#FFFFFF" stroke="#334155" stroke-width="1"/>
<path d="M 180,56 L 180,124" fill="none" stroke="#333333" stroke-width="2" stroke-linejoin="round" stroke-linecap="round"/>
<path d="M 180,206 L 180,213 Q 180,220 187,220 L 452,220 Q 459,220 459,227 L 459,234" fill="none" stroke="#333333" stroke-width="2" stroke-linejoin="round" stroke-linecap="round"/>
<path d="M 475,544 L 475,476" fill="none" stroke="#6D4C41" stroke-width="2" stroke-linejoin="round" stroke-linecap="round"/>
<path d="M 475,394 L 475,336" fill="none" stroke="#6D4C41" stroke-width="2" stroke-linejoin="round" stroke-linecap="round"/>
<path d="M 256,285 L 354,285" fill="none" stroke="#333333" stroke-width="2" stroke-linejoin="round" stroke-linecap="round"/>
<path d="M 596,285 L 694,285" fill="none" stroke="#333333" stroke-width="2" stroke-linejoin="round" stroke-linecap="round"/>
<text class="small" text-anchor="middle" x="180" y="34">Button Input</text>
<text class="small" text-anchor="middle" x="475" y="577">Mains Power</text>
<text class="small" x="266" y="269">ctrl</text>
<text class="small" text-anchor="end" x="344" y="269">ctrl</text>
<text class="small" text-anchor="end" x="164" y="114">press</text>
<text class="small" text-anchor="end" x="164" y="227">ctrl</text>
<text class="small" text-anchor="middle" x="459" y="207">button</text>
<text class="small" text-anchor="end" x="459" y="357">power</text>
<text class="small" text-anchor="end" x="459" y="497">in</text>
<text class="small" text-anchor="end" x="459" y="384">out</text>
<text class="small" x="606" y="269">cmd</text>
<text class="small" text-anchor="end" x="684" y="269">cmd</text>
<text class="small" x="190" y="90">button input</text>
<text class="small" text-anchor="middle" x="319.5" y="210">button control</text>
<text class="small" x="485" y="510">mains power</text>
<text class="small" x="485" y="365">line power</text>
<text class="small" text-anchor="middle" x="305" y="306">control</text>
<text class="small" text-anchor="middle" x="645" y="306">heat command</text>
</g>
</svg>
