<svg xmlns="http://www.w3.org/2000/svg" width="1104" height="642" viewBox="0 0 1104 642">
<defs>
<style>text{font-family:Arial,Helvetica,sans-serif;fill:#111827}.label{font-size:13px}.small{font-size:11px}.header{font-size:14px;font-weight:600}</style>
</defs>
<rect x="0" y="0" width="1104" height="642" fill="#FFFFFF"/>
<rect x="2" y="38" width="1100" height="600" fill="none" stroke="#333333" stroke-width="2"/>
<path d="M 2 1 H 528 L 544 38 H 2 Z" fill="#FFFFFF" stroke="#333333" stroke-width="2"/>
<text class="header" x="12" y="24">[icn.mb] Toaster Mechanical Interconnection [toaster : Toaster]</text>
<rect x="2" y="38" width="1100" height="602" fill="none" stroke="#333333" stroke-width="0"/>
<g transform="translate(2,40)">
<rect id="toaster-boundary" x="30" y="40" width="1040" height="530" rx="12" fill="#FFFFFF" stroke="#333333" stroke-width="2"/>
<text class="label" x="40" y="62">toaster</text>
<rect id="lever-input-port" x="214.008" y="34" width="12" height="12" fill="#FFFFFF" stroke="#334155" stroke-width="1"/>
<rect id="button-input-port" x="433.968" y="34" width="12" height="12" fill="#FFFFFF" stroke="#334155" stroke-width="1"/>
<rect id="tray-pull-port" x="654.032" y="34" width="12" height="12" fill="#FFFFFF" stroke="#334155" stroke-width="1"/>
<rect id="chassis" x="80" y="435" width="940" height="60" rx="10" fill="#F5F5F5" stroke="#616161" stroke-width="2"/>
<text class="label" text-anchor="middle" x="550" y="465">Chassis</text>
<rect id="lever" x="140" y="115" width="160" height="80" rx="10" fill="#E8F5E9" stroke="#2E7D32" stroke-width="2"/>
<text class="label" text-anchor="middle" x="220" y="155">Lever</text>
<rect id="carriage" x="140" y="275" width="160" height="80" rx="10" fill="#E8F5E9" stroke="#2E7D32" stroke-width="2"/>
<text class="label" text-anchor="middle" x="220" y="315">Carriage</text>
<rect id="buttons" x="360" y="275" width="160" height="80" rx="10" fill="#E8F5E9" stroke="#2E7D32" stroke-width="2"/>
<text class="label" text-anchor="middle" x="440" y="315">Buttons</text>
<rect id="crumb-tray" x="580" y="275" width="160" height="80" rx="10" fill="#E8F5E9" stroke="#2E7D32" stroke-width="2"/>
<text class="label" text-anchor="middle" x="660" y="315">Crumb Tray</text>
<rect id="power-control-subsystem" x="800" y="275" width="160" height="80" rx="10" fill="#E3F2FD" stroke="#1565C0" stroke-width="2"/>
<text class="label" text-anchor="middle"><tspan x="880" y="307.5">Power &amp; Control</tspan><tspan x="880" dy="15">Subsystem</tspan></text>
<rect id="lever-in" x="214" y="109" width="12" height="12" fill="#FFFFFF" stroke="#334155" stroke-width="1"/>
<rect id="lever-mechanical-out" x="214" y="189" width="12" height="12" fill="#FFFFFF" stroke="#334155" stroke-width="1"/>
<rect id="carriage-lever-in" x="214" y="269" width="12" height="12" fill="#FFFFFF" stroke="#334155" stroke-width="1"/>
<rect id="carriage-guide-in" x="214" y="349" width="12" height="12" fill="#FFFFFF" stroke="#334155" stroke-width="1"/>
<rect id="button-user-in" x="434" y="269" width="12" height="12" fill="#FFFFFF" stroke="#334155" stroke-width="1"/>
<rect id="button-mount-in" x="434" y="349" width="12" height="12" fill="#FFFFFF" stroke="#334155" stroke-width="1"/>
<rect id="crumb-tray-user-in" x="654" y="269" width="12" height="12" fill="#FFFFFF" stroke="#334155" stroke-width="1"/>
<rect id="crumb-tray-guide-in" x="654" y="349" width="12" height="12" fill="#FFFFFF" stroke="#334155" stroke-width="1"/>
<rect id="subsystem-mount-in" x="874" y="349" width="12" height="12" fill="#FFFFFF" stroke="#334155" stroke-width="1"/>
<rect id="chassis-guide-out" x="213.966" y="429" width="12" height="12" fill="#FFFFFF" stroke="#334155" stroke-width="1"/>
<rect id="chassis-button-mount-out" x="434.02" y="429" width="12" height="12" fill="#FFFFFF" stroke="#334155" stroke-width="1"/>
<rect id="chassis-crumb-tray-guide-out" x="653.98" y="429" width="12" height="12" fill="#FFFFFF" stroke="#334155" stroke-width="1"/>
<rect id="chassis-subsystem-mount-out" x="874.034" y="429" width="12" height="12" fill="#FFFFFF" stroke="#334155" stroke-width="1"/>
<path d="M 220.008,46 L 220,109" fill="none" stroke="#2E7D32" stroke-width="2" stroke-linejoin="round" stroke-linecap="round"/>
<path d="M 439.968,46 L 440,269" fill="none" stroke="#2E7D32" stroke-width="2" stroke-linejoin="round" stroke-linecap="round"/>
<path d="M 660.032,46 L 660,269" fill="none" stroke="#2E7D32" stroke-width="2" stroke-linejoin="round" stroke-linecap="round"/>
<path d="M 220,201 L 220,269" fill="none" stroke="#2E7D32" stroke-width="2" stroke-linejoin="round" stroke-linecap="round"/>
<path d="M 219.966,429 L 220,361" fill="none" stroke="#2E7D32" stroke-width="2" stroke-linejoin="round" stroke-linecap="round"/>
<path d="M 440.02,429 L 440,361" fill="none" stroke="#2E7D32" stroke-width="2" stroke-linejoin="round" stroke-linecap="round"/>
<path d="M 659.98,429 L 660,361" fill="none" stroke="#2E7D32" stroke-width="2" stroke-linejoin="round" stroke-linecap="round"/>
<path d="M 880.034,429 L 880,361" fill="none" stroke="#2E7D32" stroke-width="2" stroke-linejoin="round" stroke-linecap="round"/>
<text class="small" text-anchor="middle" x="220.008" y="24">Lever Input</text>
<text class="small" text-anchor="middle" x="439.968" y="24">Button Input</text>
<text class="small" text-anchor="middle" x="660.032" y="24">Tray Pull</text>
<text class="small" text-anchor="end" x="204" y="99">input</text>
<text class="small" text-anchor="end" x="204" y="222">motion</text>
<text class="small" text-anchor="end" x="204" y="259">lift</text>
<text class="small" text-anchor="end" x="204" y="382">guide</text>
<text class="small" text-anchor="end" x="424" y="259">press</text>
<text class="small" text-anchor="end" x="424" y="382">mount</text>
<text class="small" text-anchor="end" x="644" y="259">pull</text>
<text class="small" text-anchor="end" x="644" y="382">guide</text>
<text class="small" text-anchor="end" x="864" y="382">mount</text>
<text class="small" text-anchor="end" x="203.966" y="419">guide</text>
<text class="small" text-anchor="end" x="424.02" y="419">mount</text>
<text class="small" text-anchor="end" x="643.98" y="419">guide</text>
<text class="small" text-anchor="end" x="864.034" y="419">mount</text>
<text class="small" text-anchor="end" x="212.004" y="77.5">lever input</text>
<text class="small" text-anchor="end" x="431.984" y="157.5">button press</text>
<text class="small" text-anchor="end" x="652.016" y="157.5">pull/remove</text>
<text class="small" text-anchor="end" x="212" y="235">lift</text>
<text class="small" text-anchor="end" x="211.983" y="395">guide</text>
<text class="small" text-anchor="end" x="432.01" y="395">mount</text>
<text class="small" text-anchor="end" x="651.99" y="395">guide</text>
<text class="small" text-anchor="end" x="872.017" y="395">mount</text>
</g>
</svg>
