<svg xmlns="http://www.w3.org/2000/svg" width="1003" height="564" viewBox="0 0 1003 564">
<defs>
<style>text{font-family:Arial,Helvetica,sans-serif;fill:#111827}.label{font-size:13px}.small{font-size:11px}.header{font-size:14px;font-weight:600}</style>
<marker id="arrow" markerWidth="8" markerHeight="6" refX="8" refY="3" orient="auto"><polygon points="0 0,8 3,0 6" fill="#1D4ED8"/></marker>
<marker id="arrow-dark" markerWidth="8" markerHeight="6" refX="8" refY="3" orient="auto"><polygon points="0 0,8 3,0 6" fill="#334155"/></marker>
<marker id="composition" markerWidth="12" markerHeight="12" refX="0" refY="6" orient="auto" markerUnits="strokeWidth"><polygon points="0 6,6 0,12 6,6 12" fill="#111827" stroke="#111827"/></marker>
</defs>
<rect x="0" y="0" width="1003" height="564" fill="#FFFFFF"/>
<rect x="2" y="38" width="999" height="522" fill="none" stroke="#333333" stroke-width="2"/>
<path d="M 2 1 H 528 L 544 38 H 2 Z" fill="#FFFFFF" stroke="#333333" stroke-width="2"/>
<text class="header" x="12" y="24">[icn.mb] Toaster Electrical Interconnection [toaster : Toaster]</text>
<rect x="2" y="38" width="999" height="524" fill="none" stroke="#333333" stroke-width="0"/>
<g transform="translate(2,40)">
<rect id="boundary" x="40" y="40" width="919" height="442" rx="12" fill="#FFFFFF" stroke="#333333" stroke-width="2"/>
<text class="label" x="50" y="62">toaster</text>
<rect id="bnd--buttons" x="34" y="106.002" width="12" height="12" fill="#FFFFFF" stroke="#334155" stroke-width="1"/>
<rect id="bnd--power-cord" x="34" y="403.998" width="12" height="12" fill="#FFFFFF" stroke="#334155" stroke-width="1"/>
<rect id="buttons" x="76" y="76" width="160" height="72" rx="10" fill="#E8F5E9" stroke="#2E7D32" stroke-width="2"/>
<text class="label" text-anchor="middle" x="156" y="112">Buttons</text>
<rect id="lever" x="81" y="225" width="150" height="72" rx="10" fill="#E8F5E9" stroke="#2E7D32" stroke-width="2"/>
<text class="label" text-anchor="middle" x="156" y="261">Lever</text>
<rect id="power-cord" x="81" y="374" width="150" height="72" rx="10" fill="#F3E5F5" stroke="#6A1B9A" stroke-width="2"/>
<text class="label" text-anchor="middle" x="156" y="410">Power Cord</text>
<rect id="power-control-subsystem" x="377" y="216" width="230" height="90" rx="10" fill="#E3F2FD" stroke="#1565C0" stroke-width="2"/>
<text class="label" text-anchor="middle"><tspan x="492" y="253.5">Power &amp; Control</tspan><tspan x="492" dy="15">Subsystem</tspan></text>
<rect id="heater" x="733" y="221" width="190" height="80" rx="10" fill="#FFF3E0" stroke="#EF6C00" stroke-width="2"/>
<text class="label" text-anchor="middle" x="828" y="261">Heating Element</text>
<rect id="buttons--power-control-subsystem--src" x="230" y="106" width="12" height="12" fill="#FFFFFF" stroke="#334155" stroke-width="1"/>
<rect id="buttons--bnd--tgt" x="70" y="106" width="12" height="12" fill="#FFFFFF" stroke="#334155" stroke-width="1"/>
<rect id="lever--power-control-subsystem--src" x="225" y="255" width="12" height="12" fill="#FFFFFF" stroke="#334155" stroke-width="1"/>
<rect id="power-cord--power-control-subsystem--src" x="225" y="404" width="12" height="12" fill="#FFFFFF" stroke="#334155" stroke-width="1"/>
<rect id="power-cord--bnd--tgt" x="75" y="404" width="12" height="12" fill="#FFFFFF" stroke="#334155" stroke-width="1"/>
<rect id="buttons--power-control-subsystem--tgt" x="371" y="232.5" width="12" height="12" fill="#FFFFFF" stroke="#334155" stroke-width="1"/>
<rect id="lever--power-control-subsystem--tgt" x="371" y="255" width="12" height="12" fill="#FFFFFF" stroke="#334155" stroke-width="1"/>
<rect id="power-cord--power-control-subsystem--tgt" x="371" y="277.5" width="12" height="12" fill="#FFFFFF" stroke="#334155" stroke-width="1"/>
<rect id="power-control-subsystem--heater--src" x="601" y="255" width="12" height="12" fill="#FFFFFF" stroke="#334155" stroke-width="1"/>
<rect id="power-control-subsystem--heater--tgt" x="727" y="255" width="12" height="12" fill="#FFFFFF" stroke="#334155" stroke-width="1"/>
<path d="M 242,112 L 271.25,112 Q 283.25,112 283.25,124 L 283.25,226.5 Q 283.25,238.5 295.25,238.5 L 371,238.5" fill="none" stroke="#333333" stroke-width="2" stroke-linejoin="round" stroke-linecap="round"/>
<path d="M 237,261 L 371,261" fill="none" stroke="#333333" stroke-width="2" stroke-linejoin="round" stroke-linecap="round"/>
<path d="M 237,410 L 317.75,410 Q 329.75,410 329.75,398 L 329.75,295.5 Q 329.75,283.5 341.75,283.5 L 371,283.5" fill="none" stroke="#6D4C41" stroke-width="2" stroke-linejoin="round" stroke-linecap="round"/>
<path d="M 613,261 L 727,261" fill="none" stroke="#333333" stroke-width="2" stroke-linejoin="round" stroke-linecap="round"/>
<path d="M 46,112.002 L 70,112" fill="none" stroke="#333333" stroke-width="2" stroke-linejoin="round" stroke-linecap="round"/>
<path d="M 46,409.998 L 75,410" fill="none" stroke="#6D4C41" stroke-width="2" stroke-linejoin="round" stroke-linecap="round"/>
<text class="small" x="56" y="139.002">Button Input</text>
<text class="small" x="56" y="436.998">Mains Power</text>
<text class="small" x="252" y="96">ctrl</text>
<text class="small" text-anchor="end" x="60" y="96">press</text>
<text class="small" x="247" y="245">ctrl</text>
<text class="small" x="247" y="394">out</text>
<text class="small" text-anchor="end" x="65" y="394">in</text>
<text class="small" text-anchor="end" x="361" y="222.5">button</text>
<text class="small" text-anchor="end" x="361" y="265.5">ctrl</text>
<text class="small" text-anchor="end" x="361" y="310.5">power</text>
<text class="small" x="623" y="245">cmd</text>
<text class="small" text-anchor="end" x="717" y="245">cmd</text>
<text class="small" x="293.25" y="175.25">button control</text>
<text class="small" text-anchor="middle" x="283.9" y="282">control</text>
<text class="small" x="339.75" y="346.75">line power</text>
<text class="small" text-anchor="middle" x="670" y="282">heat command</text>
</g>
</svg>
