<svg xmlns="http://www.w3.org/2000/svg" width="1113" height="476" viewBox="0 0 1113 476">
<defs>
<style>text{font-family:Arial,Helvetica,sans-serif;fill:#111827}.label{font-size:13px}.small{font-size:11px}.header{font-size:14px;font-weight:600}</style>
<marker id="arrow" markerWidth="8" markerHeight="6" refX="8" refY="3" orient="auto"><polygon points="0 0,8 3,0 6" fill="#1D4ED8"/></marker>
<marker id="arrow-dark" markerWidth="8" markerHeight="6" refX="8" refY="3" orient="auto"><polygon points="0 0,8 3,0 6" fill="#334155"/></marker>
<marker id="composition" markerWidth="12" markerHeight="12" refX="0" refY="6" orient="auto" markerUnits="strokeWidth"><polygon points="0 6,6 0,12 6,6 12" fill="#111827" stroke="#111827"/></marker>
</defs>
<rect x="0" y="0" width="1113" height="476" fill="#FFFFFF"/>
<rect x="2" y="38" width="1109" height="434" fill="none" stroke="#333333" stroke-width="2"/>
<path d="M 2 1 H 360 L 376 38 H 2 Z" fill="#FFFFFF" stroke="#333333" stroke-width="2"/>
<text class="header" x="12" y="24">[def.mb] Toaster Definition Tree [Toaster]</text>
<rect x="2" y="38" width="1109" height="436" fill="none" stroke="#333333" stroke-width="0"/>
<g transform="translate(2,40)">
<rect id="toaster" x="401" y="40" width="210" height="72" rx="10" fill="#E3F2FD" stroke="#1565C0" stroke-width="2"/>
<text class="label" text-anchor="middle" x="506" y="76">Toaster</text>
<rect id="chassis" x="40" y="222" width="190" height="72" rx="10" fill="#F8FAFC" stroke="#475569" stroke-width="2"/>
<text class="label" text-anchor="middle" x="135" y="258">Chassis</text>
<rect id="lever" x="274" y="222" width="190" height="72" rx="10" fill="#F8FAFC" stroke="#475569" stroke-width="2"/>
<text class="label" text-anchor="middle" x="369" y="258">Lever</text>
<rect id="buttons" x="508" y="222" width="190" height="72" rx="10" fill="#F8FAFC" stroke="#475569" stroke-width="2"/>
<text class="label" text-anchor="middle" x="603" y="258">Buttons</text>
<rect id="power-control-subsystem" x="742" y="222" width="230" height="72" rx="10" fill="#F8FAFC" stroke="#475569" stroke-width="2"/>
<text class="label" text-anchor="middle"><tspan x="857" y="250.5">Power &amp; Control</tspan><tspan x="857" dy="15">Subsystem</tspan></text>
<rect id="heating-element" x="177" y="322" width="190" height="72" rx="10" fill="#F8FAFC" stroke="#475569" stroke-width="2"/>
<text class="label" text-anchor="middle" x="272" y="358">Heating Element</text>
<rect id="carriage" x="411" y="322" width="190" height="72" rx="10" fill="#F8FAFC" stroke="#475569" stroke-width="2"/>
<text class="label" text-anchor="middle" x="506" y="358">Carriage</text>
<rect id="crumb-tray" x="645" y="322" width="190" height="72" rx="10" fill="#F8FAFC" stroke="#475569" stroke-width="2"/>
<text class="label" text-anchor="middle" x="740" y="358">Crumb Tray</text>
<rect id="power-cord" x="879" y="322" width="190" height="72" rx="10" fill="#F8FAFC" stroke="#475569" stroke-width="2"/>
<text class="label" text-anchor="middle" x="974" y="358">Power Cord</text>
<path d="M 506,112 L 506,159 Q 506,167 498,167 L 143,167 Q 135,167 135,175 L 135,222" fill="none" stroke="#64748B" stroke-width="2" stroke-linejoin="round" stroke-linecap="round" marker-start="url(#composition)"/>
<path d="M 506,112 L 506,159 Q 506,167 498,167 L 377,167 Q 369,167 369,175 L 369,222" fill="none" stroke="#64748B" stroke-width="2" stroke-linejoin="round" stroke-linecap="round" marker-start="url(#composition)"/>
<path d="M 506,112 L 506,159 Q 506,167 514,167 L 595,167 Q 603,167 603,175 L 603,222" fill="none" stroke="#64748B" stroke-width="2" stroke-linejoin="round" stroke-linecap="round" marker-start="url(#composition)"/>
<path d="M 506,112 L 506,159 Q 506,167 514,167 L 849,167 Q 857,167 857,175 L 857,222" fill="none" stroke="#64748B" stroke-width="2" stroke-linejoin="round" stroke-linecap="round" marker-start="url(#composition)"/>
<path d="M 506,112 L 506,159 Q 506,167 498,167 L 280,167 Q 272,167 272,175 L 272,322" fill="none" stroke="#64748B" stroke-width="2" stroke-linejoin="round" stroke-linecap="round" marker-start="url(#composition)"/>
<path d="M 506,112 L 506,167 L 506,322" fill="none" stroke="#64748B" stroke-width="2" stroke-linejoin="round" stroke-linecap="round" marker-start="url(#composition)"/>
<path d="M 506,112 L 506,159 Q 506,167 514,167 L 732,167 Q 740,167 740,175 L 740,322" fill="none" stroke="#64748B" stroke-width="2" stroke-linejoin="round" stroke-linecap="round" marker-start="url(#composition)"/>
<path d="M 506,112 L 506,159 Q 506,167 514,167 L 966,167 Q 974,167 974,175 L 974,322" fill="none" stroke="#64748B" stroke-width="2" stroke-linejoin="round" stroke-linecap="round" marker-start="url(#composition)"/>
<text class="small" x="145" y="208.1">1</text>
<text class="small" x="379" y="208.1">1</text>
<text class="small" x="613" y="208.1">1</text>
<text class="small" x="867" y="208.1">1</text>
<text class="small" x="282" y="308.7">1</text>
<text class="small" x="516" y="308.7">1</text>
<text class="small" x="750" y="308.7">0..1</text>
<text class="small" x="984" y="308.7">1</text>
</g>
</svg>
