<svg xmlns="http://www.w3.org/2000/svg" width="975" height="636" viewBox="0 0 975 636">
<defs>
<style>text{font-family:Arial,Helvetica,sans-serif;fill:#111827}.label{font-size:13px}.small{font-size:11px}.header{font-size:14px;font-weight:600}</style>
<marker id="arrow" markerWidth="8" markerHeight="6" refX="8" refY="3" orient="auto"><polygon points="0 0,8 3,0 6" fill="#1D4ED8"/></marker>
<marker id="arrow-dark" markerWidth="8" markerHeight="6" refX="8" refY="3" orient="auto"><polygon points="0 0,8 3,0 6" fill="#334155"/></marker>
<marker id="composition" markerWidth="12" markerHeight="12" refX="0" refY="6" orient="auto" markerUnits="strokeWidth"><polygon points="0 6,6 0,12 6,6 12" fill="#111827" stroke="#111827"/></marker>
</defs>
<rect x="0" y="0" width="975" height="636" fill="#FFFFFF"/>
<rect x="2" y="38" width="971" height="594" fill="none" stroke="#333333" stroke-width="2"/>
<path d="M 2 1 H 376 L 392 38 H 2 Z" fill="#FFFFFF" stroke="#333333" stroke-width="2"/>
<text class="header" x="12" y="24">[gen.mb] Toaster Operating Context [Toaster]</text>
<rect x="2" y="38" width="971" height="596" fill="none" stroke="#333333" stroke-width="0"/>
<g transform="translate(2,40)">
<circle id="user" cx="107" cy="87.2" r="11.2" fill="#FFFFFF" stroke="#334155" stroke-width="2"/>
<line x1="107" y1="98.4" x2="107" y2="127.8" stroke="#334155" stroke-width="2" stroke-linecap="round"/>
<line x1="80" y1="106.2" x2="134" y2="106.2" stroke="#334155" stroke-width="2" stroke-linecap="round"/>
<line x1="107" y1="127.8" x2="82" y2="158" stroke="#334155" stroke-width="2" stroke-linecap="round"/>
<line x1="107" y1="127.8" x2="132" y2="158" stroke="#334155" stroke-width="2" stroke-linecap="round"/>
<text class="small" text-anchor="middle" x="107" y="176">User</text>
<rect id="BreadSlice" x="72" y="272" width="150" height="70" rx="4" fill="#F1F5F9" stroke="#475569" stroke-width="1.5"/>
<text class="label" text-anchor="middle" x="147" y="307">Bread Slice</text>
<rect id="mainsSupply" x="72" y="452" width="150" height="70" rx="4" fill="#F7F9FC" stroke="#334155" stroke-width="2"/>
<text class="label" text-anchor="middle" x="147" y="487">120 VAC Outlet</text>
<rect id="Toaster" x="382" y="252" width="190" height="90" rx="4" fill="#F7F9FC" stroke="#334155" stroke-width="2"/>
<text class="label" text-anchor="middle" x="477" y="297">Toaster</text>
<rect id="ToastSlice" x="732" y="82" width="150" height="70" rx="4" fill="#F1F5F9" stroke="#475569" stroke-width="1.5"/>
<text class="label" text-anchor="middle" x="807" y="117">Toast Slice</text>
<rect id="CrumbDebris" x="732" y="262" width="150" height="70" rx="4" fill="#F1F5F9" stroke="#475569" stroke-width="1.5"/>
<text class="label" text-anchor="middle" x="807" y="297">Crumb Debris</text>
<rect id="environment" x="732" y="442" width="167" height="70" rx="4" fill="#F7F9FC" stroke="#334155" stroke-width="2"/>
<text class="label" text-anchor="middle" x="815.5" y="477">Kitchen Environment</text>
<path d="M 142,103.5 L 226,103.5 L 226,274.5 L 382,274.5" fill="none" stroke="#334155" stroke-width="1.6" stroke-linejoin="round" stroke-linecap="round" marker-end="url(#arrow-dark)"/>
<path d="M 222,307 L 278,307 L 278,297 L 382,297" fill="none" stroke="#334155" stroke-width="1.6" stroke-linejoin="round" stroke-linecap="round" marker-end="url(#arrow-dark)"/>
<path d="M 222,487 L 278,487 L 278,319.5 L 382,319.5" fill="none" stroke="#334155" stroke-width="1.6" stroke-linejoin="round" stroke-linecap="round" marker-end="url(#arrow-dark)"/>
<path d="M 572,274.5 L 628,274.5 L 628,117 L 732,117" fill="none" stroke="#334155" stroke-width="1.6" stroke-linejoin="round" stroke-linecap="round" marker-end="url(#arrow-dark)"/>
<path d="M 572,297 L 732,297" fill="none" stroke="#334155" stroke-width="1.6" stroke-linejoin="round" stroke-linecap="round" marker-end="url(#arrow-dark)"/>
<path d="M 572,319.5 L 628,319.5 L 628,477 L 732,477" fill="none" stroke="#334155" stroke-width="1.6" stroke-linejoin="round" stroke-linecap="round" marker-end="url(#arrow-dark)"/>
<text class="small" text-anchor="middle" x="226" y="197">lever/buttons</text>
<text class="small" text-anchor="middle" x="330" y="305">insert</text>
<text class="small" text-anchor="middle" x="278" y="411.25">900-1200 W</text>
<text class="small" text-anchor="middle" x="628" y="203.75">toast</text>
<text class="small" text-anchor="middle" x="652" y="305">crumbs</text>
<text class="small" text-anchor="middle" x="628" y="406.25">heat/noise</text>
</g>
</svg>
