<svg xmlns="http://www.w3.org/2000/svg" width="691" height="1804" viewBox="0 0 691 1804">
<defs>
<style>text{font-family:Arial,Helvetica,sans-serif;fill:#111827}.label{font-size:13px}.small{font-size:11px}.header{font-size:14px;font-weight:600}</style>
<marker id="arrow" markerWidth="8" markerHeight="6" refX="8" refY="3" orient="auto"><polygon points="0 0,8 3,0 6" fill="#1D4ED8"/></marker>
<marker id="arrow-dark" markerWidth="8" markerHeight="6" refX="8" refY="3" orient="auto"><polygon points="0 0,8 3,0 6" fill="#334155"/></marker>
<marker id="composition" markerWidth="12" markerHeight="12" refX="0" refY="6" orient="auto" markerUnits="strokeWidth"><polygon points="0 6,6 0,12 6,6 12" fill="#111827" stroke="#111827"/></marker>
</defs>
<rect x="0" y="0" width="691" height="1804" fill="#FFFFFF"/>
<rect x="2" y="38" width="687" height="1762" fill="none" stroke="#333333" stroke-width="2"/>
<path d="M 2 1 H 400 L 416 38 H 2 Z" fill="#FFFFFF" stroke="#333333" stroke-width="2"/>
<text class="header" x="12" y="24">[vcase.mb] Toaster Verification Cases [Toaster]</text>
<rect x="2" y="38" width="687" height="1764" fill="none" stroke="#333333" stroke-width="0"/>
<g transform="translate(2,40)">
<rect id="verifyToastBrowning" x="72" y="486" width="150" height="70" rx="4" fill="#F0FDFA" stroke="#0F766E" stroke-width="2"/>
<text class="label" text-anchor="middle" x="147" y="521">Verify Browning</text>
<rect id="verifyElectricalSafety" x="72" y="666" width="202" height="70" rx="4" fill="#F0FDFA" stroke="#0F766E" stroke-width="2"/>
<text class="label" text-anchor="middle" x="173" y="701">Verify Electrical Safety</text>
<rect id="verifyCrumbTrayRemoval" x="72" y="846" width="153" height="70" rx="4" fill="#F0FDFA" stroke="#0F766E" stroke-width="2"/>
<text class="label" text-anchor="middle" x="148.5" y="881">Verify Crumb Tray</text>
<rect id="verifyCarriageRelease" x="72" y="1026" width="195" height="70" rx="4" fill="#F0FDFA" stroke="#0F766E" stroke-width="2"/>
<text class="label" text-anchor="middle" x="169.5" y="1061">Verify Carriage Release</text>
<rect id="verifySurfaceTemperature" x="72" y="1206" width="167" height="70" rx="4" fill="#F0FDFA" stroke="#0F766E" stroke-width="2"/>
<text class="label" text-anchor="middle" x="155.5" y="1241">Verify Surface Temp</text>
<rect id="browningRequirement" x="434" y="72" width="170" height="82" rx="4" fill="#FFF7ED" stroke="#C2410C" stroke-width="2"/>
<text class="label" text-anchor="middle" x="519" y="113">Browning Req</text>
<rect id="browningLevelsRequirement" x="434" y="264" width="170" height="82" rx="4" fill="#FFF7ED" stroke="#C2410C" stroke-width="2"/>
<text class="label" text-anchor="middle" x="519" y="305">Browning Levels Req</text>
<rect id="electricalSafetyRequirement" x="434" y="456" width="181" height="82" rx="4" fill="#FFF7ED" stroke="#C2410C" stroke-width="2"/>
<text class="label" text-anchor="middle" x="524.5" y="497">Electrical Safety Req</text>
<rect id="powerRatingRequirement" x="434" y="648" width="170" height="82" rx="4" fill="#FFF7ED" stroke="#C2410C" stroke-width="2"/>
<text class="label" text-anchor="middle" x="519" y="689">Power Rating Req</text>
<rect id="thermalCutoffRequirement" x="434" y="840" width="170" height="82" rx="4" fill="#FFF7ED" stroke="#C2410C" stroke-width="2"/>
<text class="label" text-anchor="middle" x="519" y="881">Thermal Cutoff Req</text>
<rect id="crumbTrayForceRequirement" x="434" y="1032" width="174" height="82" rx="4" fill="#FFF7ED" stroke="#C2410C" stroke-width="2"/>
<text class="label" text-anchor="middle" x="521" y="1073">Crumb Tray Force Req</text>
<rect id="cleanabilityRequirement" x="434" y="1224" width="170" height="82" rx="4" fill="#FFF7ED" stroke="#C2410C" stroke-width="2"/>
<text class="label" text-anchor="middle" x="519" y="1265">Cleanability Req</text>
<rect id="carriageReleaseRequirement" x="434" y="1416" width="174" height="82" rx="4" fill="#FFF7ED" stroke="#C2410C" stroke-width="2"/>
<text class="label" text-anchor="middle" x="521" y="1457">Carriage Release Req</text>
<rect id="surfaceTemperatureRequirement" x="434" y="1608" width="170" height="82" rx="4" fill="#FFF7ED" stroke="#C2410C" stroke-width="2"/>
<text class="label" text-anchor="middle" x="519" y="1649">Surface Temp Req</text>
<path d="M 222,521 L 278,521 L 278,113 L 434,113" fill="none" stroke="#334155" stroke-width="2" stroke-linejoin="round" stroke-linecap="round"/>
<path d="M 222,521 L 278,521 L 278,305 L 434,305" fill="none" stroke="#334155" stroke-width="2" stroke-linejoin="round" stroke-linecap="round"/>
<path d="M 274,701 L 330,701 L 330,497 L 434,497" fill="none" stroke="#334155" stroke-width="2" stroke-linejoin="round" stroke-linecap="round"/>
<path d="M 274,701 L 330,701 L 330,689 L 434,689" fill="none" stroke="#334155" stroke-width="2" stroke-linejoin="round" stroke-linecap="round"/>
<path d="M 274,701 L 330,701 L 330,881 L 434,881" fill="none" stroke="#334155" stroke-width="2" stroke-linejoin="round" stroke-linecap="round"/>
<path d="M 225,881 L 281,881 L 281,1073 L 434,1073" fill="none" stroke="#334155" stroke-width="2" stroke-linejoin="round" stroke-linecap="round"/>
<path d="M 225,881 L 281,881 L 281,1265 L 434,1265" fill="none" stroke="#334155" stroke-width="2" stroke-linejoin="round" stroke-linecap="round"/>
<path d="M 267,1061 L 323,1061 L 323,1457 L 434,1457" fill="none" stroke="#334155" stroke-width="2" stroke-linejoin="round" stroke-linecap="round"/>
<path d="M 239,1241 L 295,1241 L 295,1649 L 434,1649" fill="none" stroke="#334155" stroke-width="2" stroke-linejoin="round" stroke-linecap="round"/>
<text class="small" text-anchor="middle" x="278" y="263.8">verifies</text>
<text class="small" x="288" y="413">verifies</text>
<text class="small" text-anchor="middle" x="330" y="607">verifies</text>
<text class="small" text-anchor="middle" x="382" y="697">verifies</text>
<text class="small" text-anchor="middle" x="330" y="799">verifies</text>
<text class="small" x="291" y="977">verifies</text>
<text class="small" text-anchor="middle" x="281" y="1138.6">verifies</text>
<text class="small" text-anchor="middle" x="323" y="1207.6">verifies</text>
<text class="small" text-anchor="middle" x="295" y="1514.2">verifies</text>
</g>
</svg>
