<svg xmlns="http://www.w3.org/2000/svg" width="918" height="456" viewBox="0 0 918 456">
<defs>
<style>text{font-family:Arial,Helvetica,sans-serif;fill:#111827}.label{font-size:13px}.small{font-size:11px}.header{font-size:14px;font-weight:600}</style>
<marker id="arrow" markerWidth="8" markerHeight="6" refX="8" refY="3" orient="auto"><polygon points="0 0,8 3,0 6" fill="#1D4ED8"/></marker>
<marker id="arrow-dark" markerWidth="8" markerHeight="6" refX="8" refY="3" orient="auto"><polygon points="0 0,8 3,0 6" fill="#334155"/></marker>
<marker id="composition" markerWidth="12" markerHeight="12" refX="0" refY="6" orient="auto" markerUnits="strokeWidth"><polygon points="0 6,6 0,12 6,6 12" fill="#111827" stroke="#111827"/></marker>
</defs>
<rect x="0" y="0" width="918" height="456" fill="#FFFFFF"/>
<rect x="2" y="38" width="914" height="414" fill="none" stroke="#333333" stroke-width="2"/>
<path d="M 2 1 H 416 L 432 38 H 2 Z" fill="#FFFFFF" stroke="#333333" stroke-width="2"/>
<text class="header" x="12" y="24">[flow.mb] Toaster Item and Energy Flows [Toaster]</text>
<rect x="2" y="38" width="914" height="416" fill="none" stroke="#333333" stroke-width="0"/>
<g transform="translate(2,40)">
<circle id="user" cx="107" cy="87.2" r="11.2" fill="#FFFFFF" stroke="#334155" stroke-width="2"/>
<line x1="107" y1="98.4" x2="107" y2="127.8" stroke="#334155" stroke-width="2" stroke-linecap="round"/>
<line x1="80" y1="106.2" x2="134" y2="106.2" stroke="#334155" stroke-width="2" stroke-linecap="round"/>
<line x1="107" y1="127.8" x2="82" y2="158" stroke="#334155" stroke-width="2" stroke-linecap="round"/>
<line x1="107" y1="127.8" x2="132" y2="158" stroke="#334155" stroke-width="2" stroke-linecap="round"/>
<text class="small" text-anchor="middle" x="107" y="176">User</text>
<rect id="mainsSupply" x="72" y="272" width="150" height="70" rx="4" fill="#F7F9FC" stroke="#334155" stroke-width="2"/>
<text class="label" text-anchor="middle" x="147" y="307">Mains Supply</text>
<rect id="carriage" x="382" y="82" width="150" height="70" rx="4" fill="#F7F9FC" stroke="#334155" stroke-width="2"/>
<text class="label" text-anchor="middle" x="457" y="117">Carriage</text>
<rect id="powerAndControlSubsystem" x="382" y="262" width="150" height="70" rx="4" fill="#F7F9FC" stroke="#334155" stroke-width="2"/>
<text class="label" text-anchor="middle" x="457" y="297">Power &amp; Control</text>
<rect id="heatingElement" x="692" y="82" width="150" height="70" rx="4" fill="#F7F9FC" stroke="#334155" stroke-width="2"/>
<text class="label" text-anchor="middle" x="767" y="117">Heating Element</text>
<rect id="crumbTray" x="692" y="262" width="150" height="70" rx="4" fill="#F7F9FC" stroke="#334155" stroke-width="2"/>
<text class="label" text-anchor="middle" x="767" y="297">Crumb Tray</text>
<path d="M 142,103.5 L 198,103.5 L 198,106.5 L 382,106.5" fill="none" stroke="#BE185D" stroke-width="1.8" stroke-linejoin="round" stroke-linecap="round" marker-end="url(#arrow-dark)"/>
<path d="M 222,307 L 278,307 L 278,297 L 382,297" fill="none" stroke="#BE185D" stroke-width="1.8" stroke-linejoin="round" stroke-linecap="round" marker-end="url(#arrow-dark)"/>
<path d="M 532,297 L 588,297 L 588,117 L 692,117" fill="none" stroke="#BE185D" stroke-width="1.8" stroke-linejoin="round" stroke-linecap="round" marker-end="url(#arrow-dark)"/>
<path d="M 692,117 L 532,117" fill="none" stroke="#BE185D" stroke-width="1.8" stroke-linejoin="round" stroke-linecap="round" marker-end="url(#arrow-dark)"/>
<path d="M 532,117 L 588,117 L 588,297 L 692,297" fill="none" stroke="#BE185D" stroke-width="1.8" stroke-linejoin="round" stroke-linecap="round" marker-end="url(#arrow-dark)"/>
<path d="M 382,127.5 L 326,127.5 L 326,130.5 L 142,130.5" fill="none" stroke="#BE185D" stroke-width="1.8" stroke-linejoin="round" stroke-linecap="round" marker-end="url(#arrow-dark)"/>
<text class="small" text-anchor="middle" x="290" y="114.5">bread</text>
<text class="small" text-anchor="middle" x="314.4" y="305">electrical energy</text>
<text class="small" x="598" y="207">command</text>
<text class="small" text-anchor="middle" x="612" y="107">heat</text>
<text class="small" text-anchor="end" x="578" y="207">crumbs</text>
<text class="small" text-anchor="middle" x="234" y="138.5">toast</text>
</g>
</svg>
