<svg xmlns="http://www.w3.org/2000/svg" width="1315" height="640" viewBox="0 0 1315 640">
<defs>
<style>text{font-family:Arial,Helvetica,sans-serif;fill:#111827}.label{font-size:13px}.small{font-size:11px}.header{font-size:14px;font-weight:600}</style>
<marker id="arrow" markerWidth="8" markerHeight="6" refX="8" refY="3" orient="auto"><polygon points="0 0,8 3,0 6" fill="#1D4ED8"/></marker>
<marker id="arrow-dark" markerWidth="8" markerHeight="6" refX="8" refY="3" orient="auto"><polygon points="0 0,8 3,0 6" fill="#334155"/></marker>
<marker id="composition" markerWidth="12" markerHeight="12" refX="0" refY="6" orient="auto" markerUnits="strokeWidth"><polygon points="0 6,6 0,12 6,6 12" fill="#111827" stroke="#111827"/></marker>
</defs>
<rect x="0" y="0" width="1315" height="640" fill="#FFFFFF"/>
<rect x="2" y="38" width="1311" height="598" fill="none" stroke="#333333" stroke-width="2"/>
<path d="M 2 1 H 328 L 344 38 H 2 Z" fill="#FFFFFF" stroke="#333333" stroke-width="2"/>
<text class="header" x="12" y="24">[cst.mb] Toaster Parametrics [Toaster]</text>
<rect x="2" y="38" width="1311" height="600" fill="none" stroke="#333333" stroke-width="0"/>
<g transform="translate(2,40)">
<rect id="targetBrowning" x="72" y="102" width="132" height="58" rx="4" fill="#FAFAFA" stroke="#525252" stroke-width="1.5"/>
<text class="label" text-anchor="middle"><tspan x="138" y="123.5">targetBrowning</tspan><tspan x="138" dy="15">7 levels</tspan></text>
<rect id="inputPower" x="72" y="270" width="130" height="58" rx="4" fill="#FAFAFA" stroke="#525252" stroke-width="1.5"/>
<text class="label" text-anchor="middle"><tspan x="137" y="291.5">inputPower</tspan><tspan x="137" dy="15">900-1200 W</tspan></text>
<rect id="toastDuration" x="72" y="438" width="167" height="58" rx="4" fill="#FAFAFA" stroke="#525252" stroke-width="1.5"/>
<text class="label" text-anchor="middle"><tspan x="155.5" y="459.5">toastDuration</tspan><tspan x="155.5" dy="15">90-150 s at level 4</tspan></text>
<rect id="heatEnergyBalance" x="399" y="72" width="180" height="78" rx="4" fill="#F5F3FF" stroke="#6D28D9" stroke-width="2"/>
<text class="label" text-anchor="middle"><tspan x="489" y="103.5">Heat Energy</tspan><tspan x="489" dy="15">Balance</tspan></text>
<rect id="electricalPowerLimit" x="399" y="260" width="180" height="78" rx="4" fill="#F5F3FF" stroke="#6D28D9" stroke-width="2"/>
<text class="label" text-anchor="middle"><tspan x="489" y="291.5">Electrical Power</tspan><tspan x="489" dy="15">Limit &lt;= 1200 W</tspan></text>
<rect id="toastTimingEstimate" x="399" y="448" width="180" height="78" rx="4" fill="#F5F3FF" stroke="#6D28D9" stroke-width="2"/>
<text class="label" text-anchor="middle"><tspan x="489" y="479.5">Toast Timing</tspan><tspan x="489" dy="15">Estimate</tspan></text>
<rect id="browningTemperatureEstimate" x="739" y="72" width="180" height="78" rx="4" fill="#F5F3FF" stroke="#6D28D9" stroke-width="2"/>
<text class="label" text-anchor="middle"><tspan x="829" y="103.5">Browning Temp</tspan><tspan x="829" dy="15">Estimate</tspan></text>
<rect id="surfaceTemperatureLimit" x="739" y="260" width="180" height="78" rx="4" fill="#F5F3FF" stroke="#6D28D9" stroke-width="2"/>
<text class="label" text-anchor="middle"><tspan x="829" y="291.5">Surface Temp</tspan><tspan x="829" dy="15">Limit &lt;= 60 C</tspan></text>
<rect id="carriageReleaseTiming" x="739" y="448" width="180" height="78" rx="4" fill="#F5F3FF" stroke="#6D28D9" stroke-width="2"/>
<text class="label" text-anchor="middle"><tspan x="829" y="479.5">Carriage Release</tspan><tspan x="829" dy="15">&lt;= 2 s</tspan></text>
<rect id="toastTemperature" x="1079" y="102" width="146" height="58" rx="4" fill="#FAFAFA" stroke="#525252" stroke-width="1.5"/>
<text class="label" text-anchor="middle"><tspan x="1152" y="123.5">toastTemperature</tspan><tspan x="1152" dy="15">controlled range</tspan></text>
<rect id="surfaceTemperature" x="1079" y="270" width="160" height="58" rx="4" fill="#FAFAFA" stroke="#525252" stroke-width="1.5"/>
<text class="label" text-anchor="middle"><tspan x="1159" y="291.5">surfaceTemperature</tspan><tspan x="1159" dy="15">external touch</tspan></text>
<rect id="releaseTime" x="1079" y="438" width="130" height="58" rx="4" fill="#FAFAFA" stroke="#525252" stroke-width="1.5"/>
<text class="label" text-anchor="middle"><tspan x="1144" y="459.5">releaseTime</tspan><tspan x="1144" dy="15">&lt;= 2 s</tspan></text>
<path d="M 202,299 L 399,111" fill="none" stroke="#334155" stroke-width="2" stroke-linejoin="round" stroke-linecap="round"/>
<path d="M 239,467 L 399,487" fill="none" stroke="#334155" stroke-width="2" stroke-linejoin="round" stroke-linecap="round"/>
<path d="M 204,131 L 739,111" fill="none" stroke="#334155" stroke-width="2" stroke-linejoin="round" stroke-linecap="round"/>
<path d="M 579,111 L 739,111" fill="none" stroke="#334155" stroke-width="2" stroke-linejoin="round" stroke-linecap="round"/>
<path d="M 399,299 L 202,299" fill="none" stroke="#334155" stroke-width="1.6" stroke-linejoin="round" stroke-linecap="round" marker-end="url(#arrow-dark)"/>
<path d="M 919,111 L 975,111 L 975,131 L 1079,131" fill="none" stroke="#334155" stroke-width="1.6" stroke-linejoin="round" stroke-linecap="round" marker-end="url(#arrow-dark)"/>
<path d="M 579,111 L 635,111 L 635,299 L 739,299" fill="none" stroke="#334155" stroke-width="1.6" stroke-linejoin="round" stroke-linecap="round" marker-end="url(#arrow-dark)"/>
<path d="M 919,299 L 1079,299" fill="none" stroke="#334155" stroke-width="1.6" stroke-linejoin="round" stroke-linecap="round" marker-end="url(#arrow-dark)"/>
<path d="M 579,487 L 739,487" fill="none" stroke="#334155" stroke-width="1.6" stroke-linejoin="round" stroke-linecap="round" marker-end="url(#arrow-dark)"/>
<path d="M 919,487 L 975,487 L 975,467 L 1079,467" fill="none" stroke="#334155" stroke-width="1.6" stroke-linejoin="round" stroke-linecap="round" marker-end="url(#arrow-dark)"/>
<text class="small" text-anchor="middle" x="300.5" y="213">bind</text>
<text class="small" text-anchor="middle" x="319" y="485">bind</text>
<text class="small" text-anchor="middle" x="311" y="135">bind</text>
<text class="small" text-anchor="middle" x="659" y="119">bind</text>
<text class="small" text-anchor="middle" x="300.5" y="307">limit</text>
<text class="small" text-anchor="middle" x="1027" y="139">result</text>
<text class="small" text-anchor="middle" x="635" y="213">bounds</text>
<text class="small" text-anchor="middle" x="999" y="307">result</text>
<text class="small" text-anchor="middle" x="659" y="495">bounds</text>
<text class="small" text-anchor="middle" x="1027" y="475">result</text>
</g>
</svg>
