<svg xmlns="http://www.w3.org/2000/svg" width="520" height="320" viewBox="0 0 520 320">
<defs>
<style>text{font-family:Arial,sans-serif;fill:#1E293B}.lbl{font-size:11px;text-anchor:middle}.edge-lbl{font-size:9px;fill:#64748B;text-anchor:middle}</style>
</defs>
<rect width="520" height="320" fill="#FFFFFF"/>
<line x1="326.0" y1="232.0" x2="434.0" y2="88.0" stroke="#64748B" stroke-width="1.5"/>
<text class="edge-lbl" x="388.0" y="166.0">lift</text>
<line x1="208.3" y1="234.5" x2="431.7" y2="85.5" stroke="#64748B" stroke-width="1.5"/>
<text class="edge-lbl" x="325.5" y="168.3">guide</text>
<line x1="194.0" y1="232.0" x2="86.0" y2="88.0" stroke="#64748B" stroke-width="1.5"/>
<text class="edge-lbl" x="148.0" y="154.0">mount</text>
<line x1="200.0" y1="230.0" x2="200.0" y2="90.0" stroke="#64748B" stroke-width="1.5"/>
<text class="edge-lbl" x="210.0" y="160.0">guide</text>
<line x1="206.0" y1="232.0" x2="314.0" y2="88.0" stroke="#64748B" stroke-width="1.5"/>
<text class="edge-lbl" x="268.0" y="166.0">mount</text>
<line x1="320.0" y1="320.0" x2="320.0" y2="250.0" stroke="#CBD5E1" stroke-width="1.5" stroke-dasharray="6,4"/>
<text class="edge-lbl" x="326.0" y="285.0" text-anchor="start">lever input</text>
<line x1="80.0" y1="0.0" x2="80.0" y2="70.0" stroke="#CBD5E1" stroke-width="1.5" stroke-dasharray="6,4"/>
<text class="edge-lbl" x="86.0" y="35.0" text-anchor="start">button press</text>
<line x1="200.0" y1="0.0" x2="200.0" y2="70.0" stroke="#CBD5E1" stroke-width="1.5" stroke-dasharray="6,4"/>
<text class="edge-lbl" x="206.0" y="35.0" text-anchor="start">pull/remove</text>
<circle cx="200.0" cy="240.0" r="10" fill="#1E40AF" stroke="#1E293B" stroke-width="1.5"/>
<text class="lbl" x="200.0" y="263.0">Chassis</text>
<circle cx="320.0" cy="240.0" r="10" fill="#1E40AF" stroke="#1E293B" stroke-width="1.5"/>
<text class="lbl" x="320.0" y="263.0">Lever</text>
<circle cx="80.0" cy="80.0" r="10" fill="#1E40AF" stroke="#1E293B" stroke-width="1.5"/>
<text class="lbl" x="80.0" y="103.0">Buttons</text>
<circle cx="440.0" cy="80.0" r="10" fill="#1E40AF" stroke="#1E293B" stroke-width="1.5"/>
<text class="lbl" x="440.0" y="103.0">Carriage</text>
<circle cx="200.0" cy="80.0" r="10" fill="#1E40AF" stroke="#1E293B" stroke-width="1.5"/>
<text class="lbl" x="200.0" y="103.0">Crumb Tray</text>
<circle cx="320.0" cy="80.0" r="10" fill="#1E40AF" stroke="#1E293B" stroke-width="1.5"/>
<text class="lbl" x="320.0" y="103.0">Power &amp; Control</text>
<text class="lbl" x="320.0" y="117.0">Subsystem</text>
</svg>
