<svg xmlns="http://www.w3.org/2000/svg" width="480" height="400" viewBox="0 0 480 400">
<defs>
<style>text{font-family:Arial,sans-serif;fill:#1E293B}.lbl{font-size:11px;text-anchor:middle}.edge-lbl{font-size:9px;fill:#64748B;text-anchor:middle}</style>
</defs>
<rect width="480" height="400" fill="#FFFFFF"/>
<line x1="88.0" y1="86.0" x2="232.0" y2="194.0" stroke="#64748B" stroke-width="1.5"/>
<text class="edge-lbl" x="154.0" y="148.0">button control</text>
<line x1="90.0" y1="200.0" x2="230.0" y2="200.0" stroke="#64748B" stroke-width="1.5"/>
<text class="edge-lbl" x="160.0" y="210.0">control</text>
<line x1="88.0" y1="314.0" x2="232.0" y2="206.0" stroke="#64748B" stroke-width="1.5"/>
<text class="edge-lbl" x="166.0" y="268.0">line power</text>
<line x1="250.0" y1="200.0" x2="390.0" y2="200.0" stroke="#64748B" stroke-width="1.5"/>
<text class="edge-lbl" x="320.0" y="210.0">heat command</text>
<line x1="0.0" y1="80.0" x2="70.0" y2="80.0" stroke="#CBD5E1" stroke-width="1.5" stroke-dasharray="6,4"/>
<text class="edge-lbl" x="41.0" y="80.0" text-anchor="start">Button Input</text>
<line x1="0.0" y1="320.0" x2="70.0" y2="320.0" stroke="#CBD5E1" stroke-width="1.5" stroke-dasharray="6,4"/>
<text class="edge-lbl" x="41.0" y="320.0" text-anchor="start">Mains Power</text>
<circle cx="80.0" cy="80.0" r="10" fill="#1E40AF" stroke="#1E293B" stroke-width="1.5"/>
<text class="lbl" x="80.0" y="103.0">Buttons</text>
<circle cx="80.0" cy="200.0" r="10" fill="#1E40AF" stroke="#1E293B" stroke-width="1.5"/>
<text class="lbl" x="80.0" y="223.0">Lever</text>
<circle cx="80.0" cy="320.0" r="10" fill="#1E40AF" stroke="#1E293B" stroke-width="1.5"/>
<text class="lbl" x="80.0" y="343.0">Power Cord</text>
<circle cx="240.0" cy="200.0" r="10" fill="#1E40AF" stroke="#1E293B" stroke-width="1.5"/>
<text class="lbl" x="240.0" y="223.0">Power &amp; Control</text>
<text class="lbl" x="240.0" y="237.0">Subsystem</text>
<circle cx="400.0" cy="200.0" r="10" fill="#1E40AF" stroke="#1E293B" stroke-width="1.5"/>
<text class="lbl" x="400.0" y="223.0">Heating Element</text>
</svg>
