<svg xmlns="http://www.w3.org/2000/svg" width="632" height="796" viewBox="0 0 632 796">
<defs>
<style>text{font-family:Arial,Helvetica,sans-serif;fill:#111827}.label{font-size:13px}.small{font-size:11px}.header{font-size:14px;font-weight:600}</style>
<marker id="arrow" markerWidth="8" markerHeight="6" refX="8" refY="3" orient="auto"><polygon points="0 0,8 3,0 6" fill="#1D4ED8"/></marker>
<marker id="arrow-dark" markerWidth="8" markerHeight="6" refX="8" refY="3" orient="auto"><polygon points="0 0,8 3,0 6" fill="#334155"/></marker>
<marker id="composition" markerWidth="12" markerHeight="12" refX="0" refY="6" orient="auto" markerUnits="strokeWidth"><polygon points="0 6,6 0,12 6,6 12" fill="#111827" stroke="#111827"/></marker>
</defs>
<rect x="0" y="0" width="632" height="796" fill="#FFFFFF"/>
<rect x="2" y="38" width="628" height="754" fill="none" stroke="#333333" stroke-width="2"/>
<path d="M 2 1 H 328 L 344 38 H 2 Z" fill="#FFFFFF" stroke="#333333" stroke-width="2"/>
<text class="header" x="12" y="24">[intf.mb] Toaster Interfaces [Toaster]</text>
<rect x="2" y="38" width="628" height="756" fill="none" stroke="#333333" stroke-width="0"/>
<g transform="translate(2,40)">
<rect id="UserInterface" x="72" y="72" width="150" height="70" rx="4" fill="#F0F9FF" stroke="#0369A1" stroke-width="2"/>
<text class="label" text-anchor="middle" x="147" y="107">User Interface</text>
<rect id="PowerInterface" x="72" y="252" width="150" height="70" rx="4" fill="#F0F9FF" stroke="#0369A1" stroke-width="2"/>
<text class="label" text-anchor="middle" x="147" y="287">Power Interface</text>
<rect id="MechanicalInterface" x="72" y="432" width="174" height="70" rx="4" fill="#F0F9FF" stroke="#0369A1" stroke-width="2"/>
<text class="label" text-anchor="middle" x="159" y="467">Mechanical Interface</text>
<rect id="ThermalInterface" x="72" y="612" width="153" height="70" rx="4" fill="#F0F9FF" stroke="#0369A1" stroke-width="2"/>
<text class="label" text-anchor="middle" x="148.5" y="647">Thermal Interface</text>
<rect id="UserCommand" x="406" y="72" width="150" height="70" rx="4" fill="#F1F5F9" stroke="#475569" stroke-width="1.5"/>
<text class="label" text-anchor="middle" x="481" y="107">UserCommand</text>
<rect id="ElectricalEnergy" x="406" y="252" width="150" height="70" rx="4" fill="#F1F5F9" stroke="#475569" stroke-width="1.5"/>
<text class="label" text-anchor="middle" x="481" y="287">ElectricalEnergy</text>
<rect id="BreadSlice" x="406" y="432" width="150" height="70" rx="4" fill="#F1F5F9" stroke="#475569" stroke-width="1.5"/>
<text class="label" text-anchor="middle" x="481" y="467">BreadSlice</text>
<rect id="HeatEnergy" x="406" y="612" width="150" height="70" rx="4" fill="#F1F5F9" stroke="#475569" stroke-width="1.5"/>
<text class="label" text-anchor="middle" x="481" y="647">HeatEnergy</text>
<path d="M 222,107 L 406,107" fill="none" stroke="#334155" stroke-width="2" stroke-linejoin="round" stroke-linecap="round"/>
<path d="M 222,287 L 406,287" fill="none" stroke="#334155" stroke-width="2" stroke-linejoin="round" stroke-linecap="round"/>
<path d="M 246,467 L 406,467" fill="none" stroke="#334155" stroke-width="2" stroke-linejoin="round" stroke-linecap="round"/>
<path d="M 225,647 L 406,647" fill="none" stroke="#334155" stroke-width="2" stroke-linejoin="round" stroke-linecap="round"/>
<text class="small" text-anchor="middle" x="314" y="115">carries</text>
<text class="small" text-anchor="middle" x="314" y="295">carries</text>
<text class="small" text-anchor="middle" x="326" y="475">positions</text>
<text class="small" text-anchor="middle" x="315.5" y="655">carries</text>
</g>
</svg>
