<svg xmlns="http://www.w3.org/2000/svg" width="1030" height="594" viewBox="0 0 1030 594">
<defs>
<style>text{font-family:Arial,Helvetica,sans-serif;fill:#111827}.label{font-size:13px}.small{font-size:11px}.header{font-size:14px;font-weight:600}</style>
<marker id="arrow" markerWidth="8" markerHeight="6" refX="8" refY="3" orient="auto"><polygon points="0 0,8 3,0 6" fill="#1D4ED8"/></marker>
<marker id="arrow-dark" markerWidth="8" markerHeight="6" refX="8" refY="3" orient="auto"><polygon points="0 0,8 3,0 6" fill="#334155"/></marker>
<marker id="composition" markerWidth="12" markerHeight="12" refX="0" refY="6" orient="auto" markerUnits="strokeWidth"><polygon points="0 6,6 0,12 6,6 12" fill="#111827" stroke="#111827"/></marker>
</defs>
<rect x="0" y="0" width="1030" height="594" fill="#FFFFFF"/>
<rect x="2" y="38" width="1026" height="552" fill="none" stroke="#333333" stroke-width="2"/>
<path d="M 2 1 H 680 L 696 38 H 2 Z" fill="#FFFFFF" stroke="#333333" stroke-width="2"/>
<text class="header" x="12" y="24">[stv.mb] AGC_CM verbs (V37/V36/V69; 1201/1202 ≠ abort) [AGC_CM_Mode : AGC_CM_Mode]</text>
<rect x="2" y="38" width="1026" height="554" fill="none" stroke="#333333" stroke-width="0"/>
<g transform="translate(2,40)">
<rect id="boundary" x="114" y="68" width="872" height="444" rx="12" fill="#FFFFFF" stroke="#334155" stroke-width="2"/>
<text class="label" x="124" y="90">AGC_CM_Mode</text>
<circle id="initial" cx="160" cy="290" r="10" fill="#1E293B" stroke="#1E293B" stroke-width="1"/>
<rect id="p00" x="330" y="262" width="140" height="56" rx="16" fill="#EFF6FF" stroke="#1D4ED8" stroke-width="2"/>
<text class="label" text-anchor="middle" x="400" y="290">P00</text>
<rect id="mode" x="570" y="132" width="140" height="56" rx="16" fill="#EFF6FF" stroke="#1D4ED8" stroke-width="2"/>
<text class="label" text-anchor="middle" x="640" y="160">V37 mode</text>
<rect id="freshStart" x="570" y="262" width="140" height="56" rx="16" fill="#EFF6FF" stroke="#1D4ED8" stroke-width="2"/>
<text class="label" text-anchor="middle" x="640" y="290">V36 fresh start</text>
<rect id="restart" x="570" y="392" width="140" height="56" rx="16" fill="#EFF6FF" stroke="#1D4ED8" stroke-width="2"/>
<text class="label" text-anchor="middle" x="640" y="420">V69 restart</text>
<rect id="execOverflow" x="810" y="262" width="140" height="56" rx="16" fill="#EFF6FF" stroke="#1D4ED8" stroke-width="2"/>
<text class="label" text-anchor="middle"><tspan x="880" y="275">1201/1202</tspan><tspan x="880" dy="15">exec overflow</tspan><tspan x="880" dy="15">(not abort)</tspan></text>
<path d="M 170,290 L 330,290" fill="none" stroke="#1D4ED8" stroke-width="1.5" stroke-linejoin="round" stroke-linecap="round" marker-end="url(#arrow)"/>
<path d="M 470,276 L 487,276 Q 495,276 495,268 L 495,168 Q 495,160 503,160 L 570,160" fill="none" stroke="#1D4ED8" stroke-width="1.5" stroke-linejoin="round" stroke-linecap="round" marker-end="url(#arrow)"/>
<path d="M 470,290 L 570,290" fill="none" stroke="#1D4ED8" stroke-width="1.5" stroke-linejoin="round" stroke-linecap="round" marker-end="url(#arrow)"/>
<path d="M 470,304 L 537,304 Q 545,304 545,312 L 545,412 Q 545,420 553,420 L 570,420" fill="none" stroke="#1D4ED8" stroke-width="1.5" stroke-linejoin="round" stroke-linecap="round" marker-end="url(#arrow)"/>
<path d="M 710,160 L 752,160 Q 760,160 760,168 L 760,282 Q 760,290 768,290 L 810,290" fill="none" stroke="#1D4ED8" stroke-width="1.5" stroke-linejoin="round" stroke-linecap="round" marker-end="url(#arrow)"/>
<path d="M 640,318 L 640,338 Q 640,346 632,346 L 552,346 A 7 7 0 0 1 538,346 L 408,346 Q 400,346 400,338 L 400,318" fill="none" stroke="#1D4ED8" stroke-width="1.5" stroke-linejoin="round" stroke-linecap="round" marker-end="url(#arrow)"/>
<path d="M 640,448 L 640,468 Q 640,476 632,476 L 408,476 Q 400,476 400,468 L 400,318" fill="none" stroke="#1D4ED8" stroke-width="1.5" stroke-linejoin="round" stroke-linecap="round" marker-end="url(#arrow)"/>
<path d="M 880,262 L 880,112 Q 880,104 872,104 L 550,104 Q 542,104 542,112 L 542,153 A 7 7 0 0 1 542,167 L 542,282 Q 542,290 534,290 L 470,290" fill="none" stroke="#1D4ED8" stroke-width="1.5" stroke-linejoin="round" stroke-linecap="round" marker-end="url(#arrow)"/>
<text class="small" text-anchor="middle" x="495" y="226">V37</text>
<text class="small" text-anchor="middle" x="520" y="278">V36</text>
<text class="small" text-anchor="middle" x="545" y="370">V69</text>
<text class="small" text-anchor="middle" x="760" y="233">1201/1202</text>
<text class="small" text-anchor="middle" x="542" y="232.9">resume</text>
</g>
</svg>
